<svg width="30" height="30" viewBox="0 0 30 30" fill="none" xmlns="http://www.w3.org/2000/svg">
<mask id="path-1-outside-1_210_5572" maskUnits="userSpaceOnUse" x="0" y="0" width="30" height="30" fill="black">
<rect fill="white" width="30" height="30"/>
<path fill-rule="evenodd" clip-rule="evenodd" d="M28.3348 6.73761C27.7748 6.06122 26.9581 5.66472 26.0831 5.66472H8.57161L8.26828 3.51895C8.06995 2.08455 6.83329 1 5.37497 1H3.90498C3.57831 1 3.32165 1.25656 3.32165 1.58309C3.32165 1.90962 3.57831 2.16618 3.90498 2.16618H5.37497C6.24996 2.16618 6.98495 2.81924 7.11329 3.67055L9.18994 18.6327C9.5516 21.2099 11.7799 23.1574 14.3932 23.1574H23.7498C24.0765 23.1574 24.3332 22.9009 24.3332 22.5743C24.3332 22.2478 24.0765 21.9913 23.7498 21.9913H14.3932C12.3749 21.9913 10.6366 20.4869 10.3566 18.4927H22.7698C25.2665 18.4927 27.4248 16.7201 27.9148 14.2711L28.9415 9.1516C29.1165 8.28863 28.8948 7.41399 28.3348 6.72595V6.73761ZM27.7981 8.93003L26.7715 14.0496C26.3865 15.9504 24.7065 17.3265 22.7698 17.3265H10.1933L8.73494 6.8309H26.0831C26.6081 6.8309 27.0981 7.06414 27.4365 7.4723C27.7748 7.88047 27.9031 8.40525 27.7981 8.93003ZM9.1666 26.6676C9.1666 25.3848 10.2166 24.3353 11.4999 24.3353C12.7832 24.3353 13.8332 25.3848 13.8332 26.6676C13.8332 27.9504 12.7832 29 11.4999 29C10.2166 29 9.1666 27.9504 9.1666 26.6676ZM11.4999 27.8338C10.8583 27.8338 10.3333 27.309 10.3333 26.6676C10.3333 26.0262 10.8583 25.5015 11.4999 25.5015C12.1416 25.5015 12.6666 26.0262 12.6666 26.6676C12.6666 27.309 12.1416 27.8338 11.4999 27.8338ZM19.6665 26.6676C19.6665 25.3848 20.7165 24.3353 21.9998 24.3353C23.2832 24.3353 24.3332 25.3848 24.3332 26.6676C24.3332 27.9504 23.2832 29 21.9998 29C20.7165 29 19.6665 27.9504 19.6665 26.6676ZM21.9998 27.8338C21.3582 27.8338 20.8332 27.309 20.8332 26.6676C20.8332 26.0262 21.3582 25.5015 21.9998 25.5015C22.6415 25.5015 23.1665 26.0262 23.1665 26.6676C23.1665 27.309 22.6415 27.8338 21.9998 27.8338ZM1.58333 6.8309C1.25666 6.8309 1 7.08746 1 7.41399C1 7.74052 1.25666 7.99708 1.58333 7.99708H4.54664C4.8733 7.99708 5.12997 7.74052 5.12997 7.41399C5.12997 7.08746 4.8733 6.8309 4.54664 6.8309H1.58333ZM1 12.0787C1 11.7522 1.25666 11.4956 1.58333 11.4956H5.0833C5.40997 11.4956 5.66663 11.7522 5.66663 12.0787C5.66663 12.4052 5.40997 12.6618 5.0833 12.6618H1.58333C1.25666 12.6618 1 12.4052 1 12.0787ZM6.24996 17.3265C6.57662 17.3265 6.83329 17.07 6.83329 16.7434C6.83329 16.4169 6.57662 16.1603 6.24996 16.1603H1.58333C1.25666 16.1603 1 16.4169 1 16.7434C1 17.07 1.25666 17.3265 1.58333 17.3265H6.24996Z"/>
</mask>
<path fill-rule="evenodd" clip-rule="evenodd" d="M28.3348 6.73761C27.7748 6.06122 26.9581 5.66472 26.0831 5.66472H8.57161L8.26828 3.51895C8.06995 2.08455 6.83329 1 5.37497 1H3.90498C3.57831 1 3.32165 1.25656 3.32165 1.58309C3.32165 1.90962 3.57831 2.16618 3.90498 2.16618H5.37497C6.24996 2.16618 6.98495 2.81924 7.11329 3.67055L9.18994 18.6327C9.5516 21.2099 11.7799 23.1574 14.3932 23.1574H23.7498C24.0765 23.1574 24.3332 22.9009 24.3332 22.5743C24.3332 22.2478 24.0765 21.9913 23.7498 21.9913H14.3932C12.3749 21.9913 10.6366 20.4869 10.3566 18.4927H22.7698C25.2665 18.4927 27.4248 16.7201 27.9148 14.2711L28.9415 9.1516C29.1165 8.28863 28.8948 7.41399 28.3348 6.72595V6.73761ZM27.7981 8.93003L26.7715 14.0496C26.3865 15.9504 24.7065 17.3265 22.7698 17.3265H10.1933L8.73494 6.8309H26.0831C26.6081 6.8309 27.0981 7.06414 27.4365 7.4723C27.7748 7.88047 27.9031 8.40525 27.7981 8.93003ZM9.1666 26.6676C9.1666 25.3848 10.2166 24.3353 11.4999 24.3353C12.7832 24.3353 13.8332 25.3848 13.8332 26.6676C13.8332 27.9504 12.7832 29 11.4999 29C10.2166 29 9.1666 27.9504 9.1666 26.6676ZM11.4999 27.8338C10.8583 27.8338 10.3333 27.309 10.3333 26.6676C10.3333 26.0262 10.8583 25.5015 11.4999 25.5015C12.1416 25.5015 12.6666 26.0262 12.6666 26.6676C12.6666 27.309 12.1416 27.8338 11.4999 27.8338ZM19.6665 26.6676C19.6665 25.3848 20.7165 24.3353 21.9998 24.3353C23.2832 24.3353 24.3332 25.3848 24.3332 26.6676C24.3332 27.9504 23.2832 29 21.9998 29C20.7165 29 19.6665 27.9504 19.6665 26.6676ZM21.9998 27.8338C21.3582 27.8338 20.8332 27.309 20.8332 26.6676C20.8332 26.0262 21.3582 25.5015 21.9998 25.5015C22.6415 25.5015 23.1665 26.0262 23.1665 26.6676C23.1665 27.309 22.6415 27.8338 21.9998 27.8338ZM1.58333 6.8309C1.25666 6.8309 1 7.08746 1 7.41399C1 7.74052 1.25666 7.99708 1.58333 7.99708H4.54664C4.8733 7.99708 5.12997 7.74052 5.12997 7.41399C5.12997 7.08746 4.8733 6.8309 4.54664 6.8309H1.58333ZM1 12.0787C1 11.7522 1.25666 11.4956 1.58333 11.4956H5.0833C5.40997 11.4956 5.66663 11.7522 5.66663 12.0787C5.66663 12.4052 5.40997 12.6618 5.0833 12.6618H1.58333C1.25666 12.6618 1 12.4052 1 12.0787ZM6.24996 17.3265C6.57662 17.3265 6.83329 17.07 6.83329 16.7434C6.83329 16.4169 6.57662 16.1603 6.24996 16.1603H1.58333C1.25666 16.1603 1 16.4169 1 16.7434C1 17.07 1.25666 17.3265 1.58333 17.3265H6.24996Z" fill="#6DBD44"/>
<path d="M28.3348 6.73761L28.2578 6.80138C28.2847 6.83386 28.329 6.84598 28.3687 6.83169C28.4083 6.8174 28.4348 6.77977 28.4348 6.73761H28.3348ZM8.57161 5.66472L8.47259 5.67872C8.47957 5.72805 8.52179 5.76472 8.57161 5.76472V5.66472ZM8.26828 3.51895L8.16922 3.53265L8.16926 3.53295L8.26828 3.51895ZM7.11329 3.67055L7.21234 3.65681L7.21217 3.65565L7.11329 3.67055ZM9.18994 18.6327L9.09089 18.6464L9.09091 18.6465L9.18994 18.6327ZM10.3566 18.4927V18.3927C10.3276 18.3927 10.3001 18.4053 10.2811 18.4271C10.2621 18.4489 10.2535 18.478 10.2576 18.5066L10.3566 18.4927ZM27.9148 14.2711L27.8167 14.2515L27.8167 14.2515L27.9148 14.2711ZM28.9415 9.1516L28.8434 9.13173L28.8434 9.13194L28.9415 9.1516ZM28.3348 6.72595L28.4124 6.66282C28.3856 6.63 28.3412 6.61755 28.3013 6.63172C28.2614 6.6459 28.2348 6.68363 28.2348 6.72595H28.3348ZM26.7715 14.0496L26.8695 14.0694L26.8695 14.0692L26.7715 14.0496ZM27.7981 8.93003L27.8962 8.94969L27.8962 8.94965L27.7981 8.93003ZM10.1933 17.3265L10.0942 17.3403C10.1011 17.3897 10.1434 17.4265 10.1933 17.4265V17.3265ZM8.73494 6.8309V6.7309C8.70602 6.7309 8.67851 6.74343 8.65952 6.76524C8.64053 6.78705 8.63191 6.81602 8.63589 6.84467L8.73494 6.8309ZM27.4365 7.4723L27.5135 7.40849V7.40849L27.4365 7.4723ZM26.0831 5.76472C26.9273 5.76472 27.7161 6.14714 28.2578 6.80138L28.4118 6.67384C27.8335 5.97531 26.9889 5.56472 26.0831 5.56472V5.76472ZM8.57161 5.76472H26.0831V5.56472H8.57161V5.76472ZM8.16926 3.53295L8.47259 5.67872L8.67062 5.65073L8.36729 3.50495L8.16926 3.53295ZM5.37497 1.1C6.78322 1.1 7.97771 2.14758 8.16922 3.53265L8.36734 3.50525C8.16218 2.02151 6.88335 0.9 5.37497 0.9V1.1ZM3.90498 1.1H5.37497V0.9H3.90498V1.1ZM3.42165 1.58309C3.42165 1.31183 3.6335 1.1 3.90498 1.1V0.9C3.52312 0.9 3.22165 1.20129 3.22165 1.58309H3.42165ZM3.90498 2.06618C3.6335 2.06618 3.42165 1.85435 3.42165 1.58309H3.22165C3.22165 1.96489 3.52312 2.26618 3.90498 2.26618V2.06618ZM5.37497 2.06618H3.90498V2.26618H5.37497V2.06618ZM7.21217 3.65565C7.07664 2.75659 6.30061 2.06618 5.37497 2.06618V2.26618C6.19931 2.26618 6.89327 2.8819 7.0144 3.68546L7.21217 3.65565ZM9.28899 18.6189L7.21234 3.65681L7.01424 3.6843L9.09089 18.6464L9.28899 18.6189ZM14.3932 23.0574C11.8299 23.0574 9.64372 21.1468 9.28897 18.6188L9.09091 18.6465C9.45948 21.273 11.7299 23.2574 14.3932 23.2574V23.0574ZM23.7498 23.0574H14.3932V23.2574H23.7498V23.0574ZM24.2332 22.5743C24.2332 22.8456 24.0213 23.0574 23.7498 23.0574V23.2574C24.1317 23.2574 24.4332 22.9561 24.4332 22.5743H24.2332ZM23.7498 22.0913C24.0213 22.0913 24.2332 22.3031 24.2332 22.5743H24.4332C24.4332 22.1925 24.1317 21.8913 23.7498 21.8913V22.0913ZM14.3932 22.0913H23.7498V21.8913H14.3932V22.0913ZM10.2576 18.5066C10.5445 20.5505 12.3254 22.0913 14.3932 22.0913V21.8913C12.4245 21.8913 10.7286 20.4233 10.4556 18.4788L10.2576 18.5066ZM22.7698 18.3927H10.3566V18.5927H22.7698V18.3927ZM27.8167 14.2515C27.3361 16.6539 25.2187 18.3927 22.7698 18.3927V18.5927C25.3143 18.5927 27.5135 16.7864 28.0129 14.2908L27.8167 14.2515ZM28.8434 9.13194L27.8167 14.2515L28.0128 14.2908L29.0395 9.17127L28.8434 9.13194ZM28.2572 6.78907C28.7987 7.45441 29.0124 8.29872 28.8434 9.13173L29.0395 9.17148C29.2205 8.27854 28.9908 7.37358 28.4124 6.66282L28.2572 6.78907ZM28.4348 6.73761V6.72595H28.2348V6.73761H28.4348ZM26.8695 14.0692L27.8962 8.94969L27.7001 8.91037L26.6734 14.0299L26.8695 14.0692ZM22.7698 17.4265C24.7542 17.4265 26.4751 16.0168 26.8695 14.0694L26.6735 14.0297C26.2979 15.8841 24.6588 17.2265 22.7698 17.2265V17.4265ZM10.1933 17.4265H22.7698V17.2265H10.1933V17.4265ZM8.63589 6.84467L10.0942 17.3403L10.2923 17.3128L8.83399 6.81714L8.63589 6.84467ZM26.0831 6.7309H8.73494V6.9309H26.0831V6.7309ZM27.5135 7.40849C27.1565 6.97782 26.6385 6.7309 26.0831 6.7309V6.9309C26.5778 6.9309 27.0398 7.15046 27.3595 7.53612L27.5135 7.40849ZM27.8962 8.94965C28.007 8.39603 27.8715 7.84043 27.5135 7.40849L27.3595 7.53612C27.6781 7.9205 27.7993 8.41446 27.7001 8.91041L27.8962 8.94965ZM11.4999 24.2353C10.1614 24.2353 9.0666 25.3296 9.0666 26.6676H9.26661C9.26661 25.4401 10.2718 24.4353 11.4999 24.4353V24.2353ZM13.9332 26.6676C13.9332 25.3296 12.8384 24.2353 11.4999 24.2353V24.4353C12.7281 24.4353 13.7332 25.4401 13.7332 26.6676H13.9332ZM11.4999 29.1C12.8384 29.1 13.9332 28.0057 13.9332 26.6676H13.7332C13.7332 27.8952 12.7281 28.9 11.4999 28.9V29.1ZM9.0666 26.6676C9.0666 28.0057 10.1614 29.1 11.4999 29.1V28.9C10.2718 28.9 9.26661 27.8952 9.26661 26.6676H9.0666ZM10.2333 26.6676C10.2333 27.3643 10.8031 27.9338 11.4999 27.9338V27.7338C10.9134 27.7338 10.4333 27.2538 10.4333 26.6676H10.2333ZM11.4999 25.4015C10.8031 25.4015 10.2333 25.971 10.2333 26.6676H10.4333C10.4333 26.0815 10.9134 25.6015 11.4999 25.6015V25.4015ZM12.7666 26.6676C12.7666 25.971 12.1968 25.4015 11.4999 25.4015V25.6015C12.0864 25.6015 12.5666 26.0815 12.5666 26.6676H12.7666ZM11.4999 27.9338C12.1968 27.9338 12.7666 27.3643 12.7666 26.6676H12.5666C12.5666 27.2538 12.0864 27.7338 11.4999 27.7338V27.9338ZM21.9998 24.2353C20.6613 24.2353 19.5665 25.3296 19.5665 26.6676H19.7665C19.7665 25.4401 20.7717 24.4353 21.9998 24.4353V24.2353ZM24.4332 26.6676C24.4332 25.3296 23.3384 24.2353 21.9998 24.2353V24.4353C23.228 24.4353 24.2332 25.4401 24.2332 26.6676H24.4332ZM21.9998 29.1C23.3384 29.1 24.4332 28.0057 24.4332 26.6676H24.2332C24.2332 27.8952 23.228 28.9 21.9998 28.9V29.1ZM19.5665 26.6676C19.5665 28.0057 20.6613 29.1 21.9998 29.1V28.9C20.7717 28.9 19.7665 27.8952 19.7665 26.6676H19.5665ZM20.7332 26.6676C20.7332 27.3643 21.303 27.9338 21.9998 27.9338V27.7338C21.4134 27.7338 20.9332 27.2538 20.9332 26.6676H20.7332ZM21.9998 25.4015C21.303 25.4015 20.7332 25.971 20.7332 26.6676H20.9332C20.9332 26.0815 21.4134 25.6015 21.9998 25.6015V25.4015ZM23.2665 26.6676C23.2665 25.971 22.6967 25.4015 21.9998 25.4015V25.6015C22.5863 25.6015 23.0665 26.0815 23.0665 26.6676H23.2665ZM21.9998 27.9338C22.6967 27.9338 23.2665 27.3643 23.2665 26.6676H23.0665C23.0665 27.2538 22.5863 27.7338 21.9998 27.7338V27.9338ZM1.1 7.41399C1.1 7.14273 1.31185 6.9309 1.58333 6.9309V6.7309C1.20147 6.7309 0.9 7.0322 0.9 7.41399H1.1ZM1.58333 7.89708C1.31185 7.89708 1.1 7.68526 1.1 7.41399H0.9C0.9 7.79579 1.20147 8.09708 1.58333 8.09708V7.89708ZM4.54664 7.89708H1.58333V8.09708H4.54664V7.89708ZM5.02997 7.41399C5.02997 7.68526 4.81811 7.89708 4.54664 7.89708V8.09708C4.92849 8.09708 5.22997 7.79579 5.22997 7.41399H5.02997ZM4.54664 6.9309C4.81811 6.9309 5.02997 7.14273 5.02997 7.41399H5.22997C5.22997 7.0322 4.92849 6.7309 4.54664 6.7309V6.9309ZM1.58333 6.9309H4.54664V6.7309H1.58333V6.9309ZM1.58333 11.3956C1.20147 11.3956 0.9 11.6969 0.9 12.0787H1.1C1.1 11.8075 1.31185 11.5956 1.58333 11.5956V11.3956ZM5.0833 11.3956H1.58333V11.5956H5.0833V11.3956ZM5.76663 12.0787C5.76663 11.6969 5.46516 11.3956 5.0833 11.3956V11.5956C5.35478 11.5956 5.56663 11.8075 5.56663 12.0787H5.76663ZM5.0833 12.7618C5.46516 12.7618 5.76663 12.4605 5.76663 12.0787H5.56663C5.56663 12.35 5.35478 12.5618 5.0833 12.5618V12.7618ZM1.58333 12.7618H5.0833V12.5618H1.58333V12.7618ZM0.9 12.0787C0.9 12.4605 1.20147 12.7618 1.58333 12.7618V12.5618C1.31185 12.5618 1.1 12.35 1.1 12.0787H0.9ZM6.73329 16.7434C6.73329 17.0147 6.52143 17.2265 6.24996 17.2265V17.4265C6.63181 17.4265 6.93329 17.1252 6.93329 16.7434H6.73329ZM6.24996 16.2604C6.52143 16.2604 6.73329 16.4722 6.73329 16.7434H6.93329C6.93329 16.3616 6.63181 16.0603 6.24996 16.0603V16.2604ZM1.58333 16.2604H6.24996V16.0603H1.58333V16.2604ZM1.1 16.7434C1.1 16.4722 1.31185 16.2604 1.58333 16.2604V16.0603C1.20147 16.0603 0.9 16.3616 0.9 16.7434H1.1ZM1.58333 17.2265C1.31185 17.2265 1.1 17.0147 1.1 16.7434H0.9C0.9 17.1252 1.20147 17.4265 1.58333 17.4265V17.2265ZM6.24996 17.2265H1.58333V17.4265H6.24996V17.2265Z" fill="#6DBD44" mask="url(#path-1-outside-1_210_5572)"/>
</svg>
