<svg width="24" height="23" viewBox="0 0 24 23" fill="none" xmlns="http://www.w3.org/2000/svg">
<path fill-rule="evenodd" clip-rule="evenodd" d="M22.4536 4.71304C21.9936 4.15743 21.3228 3.83174 20.604 3.83174H6.21954L5.97037 2.06914C5.80746 0.890879 4.79163 0 3.59372 0H2.38623C2.1179 0 1.90707 0.210746 1.90707 0.478967C1.90707 0.747189 2.1179 0.957934 2.38623 0.957934H3.59372C4.31247 0.957934 4.91621 1.49438 5.02163 2.19367L6.72745 14.484C7.02453 16.601 8.85493 18.2008 11.0016 18.2008H18.6874C18.9557 18.2008 19.1665 17.99 19.1665 17.7218C19.1665 17.4536 18.9557 17.2428 18.6874 17.2428H11.0016C9.34368 17.2428 7.91577 16.0071 7.68577 14.369H17.8824C19.9332 14.369 21.7061 12.913 22.1086 10.9013L22.9519 6.69596C23.0957 5.98709 22.9136 5.26864 22.4536 4.70346V4.71304ZM22.0128 6.51432L21.1695 10.7197C20.8532 12.2811 19.4732 13.4114 17.8824 13.4114H7.55167L6.35376 4.79004H20.6041C21.0353 4.79004 21.4378 4.98163 21.7157 5.3169C21.9936 5.65218 22.0991 6.08325 22.0128 6.51432ZM6.70825 21.0838C6.70825 20.0301 7.57075 19.168 8.6249 19.168C9.67906 19.168 10.5416 20.0301 10.5416 21.0838C10.5416 22.1376 9.67906 22.9997 8.6249 22.9997C7.57075 22.9997 6.70825 22.1376 6.70825 21.0838ZM8.62493 22.0421C8.09785 22.0421 7.66661 21.611 7.66661 21.0841C7.66661 20.5573 8.09785 20.1262 8.62493 20.1262C9.15201 20.1262 9.58326 20.5573 9.58326 21.0841C9.58326 21.611 9.15201 22.0421 8.62493 22.0421ZM15.3333 21.0838C15.3333 20.0301 16.1957 19.168 17.2499 19.168C18.3041 19.168 19.1666 20.0301 19.1666 21.0838C19.1666 22.1376 18.3041 22.9997 17.2499 22.9997C16.1957 22.9997 15.3333 22.1376 15.3333 21.0838ZM17.2499 22.0421C16.7228 22.0421 16.2915 21.611 16.2915 21.0841C16.2915 20.5573 16.7228 20.1262 17.2499 20.1262C17.7769 20.1262 18.2082 20.5573 18.2082 21.0841C18.2082 21.611 17.7769 22.0421 17.2499 22.0421ZM0.479163 4.79004C0.210832 4.79004 0 5.00078 0 5.26901C0 5.53723 0.210832 5.74797 0.479163 5.74797H2.91331C3.18164 5.74797 3.39247 5.53723 3.39247 5.26901C3.39247 5.00078 3.18164 4.79004 2.91331 4.79004H0.479163ZM0 9.10006C0 8.83184 0.210832 8.62109 0.479163 8.62109H3.35414C3.62247 8.62109 3.8333 8.83184 3.8333 9.10006C3.8333 9.36828 3.62247 9.57903 3.35414 9.57903H0.479163C0.210832 9.57903 0 9.36828 0 9.10006ZM4.31247 13.4111C4.5808 13.4111 4.79163 13.2003 4.79163 12.9321C4.79163 12.6639 4.5808 12.4531 4.31247 12.4531H0.479163C0.210832 12.4531 0 12.6639 0 12.9321C0 13.2003 0.210832 13.4111 0.479163 13.4111H4.31247Z" fill="white"/>
<path d="M22.4536 4.71304L22.2995 4.84058C22.3533 4.90553 22.442 4.92978 22.5214 4.9012C22.6007 4.87262 22.6536 4.79736 22.6536 4.71304H22.4536ZM6.21954 3.83174L6.0215 3.85973C6.03545 3.95839 6.11989 4.03174 6.21954 4.03174V3.83174ZM5.97037 2.06914L5.77225 2.09653L5.77234 2.09713L5.97037 2.06914ZM5.02163 2.19367L5.21974 2.16617L5.21939 2.16386L5.02163 2.19367ZM6.72745 14.484L6.52935 14.5115L6.52939 14.5118L6.72745 14.484ZM7.68577 14.369V14.169C7.62788 14.169 7.57283 14.1941 7.53484 14.2378C7.49686 14.2815 7.47967 14.3395 7.48772 14.3968L7.68577 14.369ZM22.1086 10.9013L21.9125 10.862L21.9125 10.8621L22.1086 10.9013ZM22.9519 6.69596L22.7559 6.65621L22.7558 6.65664L22.9519 6.69596ZM22.4536 4.70346L22.6087 4.57721C22.5553 4.51157 22.4663 4.48666 22.3866 4.51501C22.3068 4.54336 22.2536 4.61883 22.2536 4.70346H22.4536ZM21.1695 10.7197L21.3655 10.7594L21.3656 10.759L21.1695 10.7197ZM22.0128 6.51432L22.2089 6.55365L22.2089 6.55356L22.0128 6.51432ZM7.55167 13.4114L7.35357 13.439C7.36731 13.5378 7.45185 13.6114 7.55167 13.6114V13.4114ZM6.35376 4.79004V4.59004C6.29592 4.59004 6.2409 4.61508 6.20292 4.65871C6.16494 4.70234 6.1477 4.76027 6.15566 4.81756L6.35376 4.79004ZM21.7157 5.3169L21.5617 5.44454V5.44454L21.7157 5.3169ZM20.604 4.03174C21.2611 4.03174 21.8762 4.32927 22.2995 4.84058L22.6076 4.58549C22.111 3.9856 21.3844 3.63174 20.604 3.63174V4.03174ZM6.21954 4.03174H20.604V3.63174H6.21954V4.03174ZM5.77234 2.09713L6.0215 3.85973L6.41757 3.80374L6.1684 2.04114L5.77234 2.09713ZM3.59372 0.2C4.6915 0.2 5.62298 1.01695 5.77226 2.09653L6.16849 2.04174C5.99193 0.76481 4.89176 -0.2 3.59372 -0.2V0.2ZM2.38623 0.2H3.59372V-0.2H2.38623V0.2ZM2.10707 0.478967C2.10707 0.32128 2.22828 0.2 2.38623 0.2V-0.2C2.00752 -0.2 1.70707 0.100211 1.70707 0.478967H2.10707ZM2.38623 0.757934C2.22828 0.757934 2.10707 0.636655 2.10707 0.478967H1.70707C1.70707 0.857723 2.00752 1.15793 2.38623 1.15793V0.757934ZM3.59372 0.757934H2.38623V1.15793H3.59372V0.757934ZM5.21939 2.16386C5.09958 1.36907 4.41376 0.757934 3.59372 0.757934V1.15793C4.21117 1.15793 4.73284 1.61969 4.82386 2.22348L5.21939 2.16386ZM6.92555 14.4565L5.21973 2.16617L4.82353 2.22116L6.52935 14.5115L6.92555 14.4565ZM11.0016 18.0007C8.95494 18.0007 7.20877 16.4747 6.92551 14.4562L6.52939 14.5118C6.84029 16.7273 8.75492 18.4008 11.0016 18.4008V18.0007ZM18.6874 18.0007H11.0016V18.4008H18.6874V18.0007ZM18.9665 17.7218C18.9665 17.8795 18.8453 18.0007 18.6874 18.0007V18.4008C19.0661 18.4008 19.3665 18.1005 19.3665 17.7218H18.9665ZM18.6874 17.4428C18.8453 17.4428 18.9665 17.5641 18.9665 17.7218H19.3665C19.3665 17.343 19.0661 17.0428 18.6874 17.0428V17.4428ZM11.0016 17.4428H18.6874V17.0428H11.0016V17.4428ZM7.48772 14.3968C7.73167 16.1342 9.24459 17.4428 11.0016 17.4428V17.0428C9.44277 17.0428 8.09988 15.8799 7.88383 14.3412L7.48772 14.3968ZM17.8824 14.169H7.68577V14.569H17.8824V14.169ZM21.9125 10.8621C21.5286 12.7804 19.8376 14.169 17.8824 14.169V14.569C20.0287 14.569 21.8835 13.0455 22.3047 10.9405L21.9125 10.8621ZM22.7558 6.65664L21.9125 10.862L22.3047 10.9406L23.148 6.73528L22.7558 6.65664ZM22.2985 4.82971C22.7215 5.34946 22.8875 6.00726 22.7559 6.65621L23.1479 6.73571C23.3038 5.96692 23.1057 5.18781 22.6087 4.57721L22.2985 4.82971ZM22.6536 4.71304V4.70346H22.2536V4.71304H22.6536ZM21.3656 10.759L22.2089 6.55365L21.8167 6.475L20.9734 10.6803L21.3656 10.759ZM17.8824 13.6114C19.5686 13.6114 21.0304 12.4138 21.3655 10.7594L20.9735 10.68C20.6761 12.1484 19.3778 13.2114 17.8824 13.2114V13.6114ZM7.55167 13.6114H17.8824V13.2114H7.55167V13.6114ZM6.15566 4.81756L7.35357 13.439L7.74976 13.3839L6.55186 4.76251L6.15566 4.81756ZM20.6041 4.59004H6.35376V4.99004H20.6041V4.59004ZM21.8697 5.18927C21.5545 4.80899 21.0959 4.59004 20.6041 4.59004V4.99004C20.9747 4.99004 21.3211 5.15426 21.5617 5.44454L21.8697 5.18927ZM22.2089 6.55356C22.3067 6.06482 22.187 5.57211 21.8697 5.18927L21.5617 5.44454C21.8002 5.73225 21.8914 6.10168 21.8167 6.47508L22.2089 6.55356ZM8.6249 18.968C7.46037 18.968 6.50825 19.9196 6.50825 21.0838H6.90825C6.90825 20.1406 7.68113 19.368 8.6249 19.368V18.968ZM10.7416 21.0838C10.7416 19.9196 9.78944 18.968 8.6249 18.968V19.368C9.56868 19.368 10.3416 20.1406 10.3416 21.0838H10.7416ZM8.6249 23.1997C9.78944 23.1997 10.7416 22.2481 10.7416 21.0838H10.3416C10.3416 22.027 9.56868 22.7997 8.6249 22.7997V23.1997ZM6.50825 21.0838C6.50825 22.2481 7.46037 23.1997 8.6249 23.1997V22.7997C7.68113 22.7997 6.90825 22.027 6.90825 21.0838H6.50825ZM7.46661 21.0841C7.46661 21.7215 7.98747 22.2421 8.62493 22.2421V21.8421C8.20823 21.8421 7.86661 21.5005 7.86661 21.0841H7.46661ZM8.62493 19.9262C7.98747 19.9262 7.46661 20.4467 7.46661 21.0841H7.86661C7.86661 20.6678 8.20823 20.3262 8.62493 20.3262V19.9262ZM9.78326 21.0841C9.78326 20.4467 9.26239 19.9262 8.62493 19.9262V20.3262C9.04163 20.3262 9.38326 20.6678 9.38326 21.0841H9.78326ZM8.62493 22.2421C9.26239 22.2421 9.78326 21.7215 9.78326 21.0841H9.38326C9.38326 21.5005 9.04163 21.8421 8.62493 21.8421V22.2421ZM17.2499 18.968C16.0854 18.968 15.1333 19.9196 15.1333 21.0838H15.5333C15.5333 20.1406 16.3061 19.368 17.2499 19.368V18.968ZM19.3666 21.0838C19.3666 19.9196 18.4144 18.968 17.2499 18.968V19.368C18.1937 19.368 18.9666 20.1406 18.9666 21.0838H19.3666ZM17.2499 23.1997C18.4144 23.1997 19.3666 22.2481 19.3666 21.0838H18.9666C18.9666 22.027 18.1937 22.7997 17.2499 22.7997V23.1997ZM15.1333 21.0838C15.1333 22.2481 16.0854 23.1997 17.2499 23.1997V22.7997C16.3061 22.7997 15.5333 22.027 15.5333 21.0838H15.1333ZM16.0915 21.0841C16.0915 21.7215 16.6124 22.2421 17.2499 22.2421V21.8421C16.8332 21.8421 16.4915 21.5005 16.4915 21.0841H16.0915ZM17.2499 19.9262C16.6124 19.9262 16.0915 20.4467 16.0915 21.0841H16.4915C16.4915 20.6678 16.8332 20.3262 17.2499 20.3262V19.9262ZM18.4082 21.0841C18.4082 20.4467 17.8873 19.9262 17.2499 19.9262V20.3262C17.6666 20.3262 18.0082 20.6678 18.0082 21.0841H18.4082ZM17.2499 22.2421C17.8873 22.2421 18.4082 21.7215 18.4082 21.0841H18.0082C18.0082 21.5005 17.6666 21.8421 17.2499 21.8421V22.2421ZM0.2 5.26901C0.2 5.11132 0.321212 4.99004 0.479163 4.99004V4.59004C0.100452 4.59004 -0.2 4.89025 -0.2 5.26901H0.2ZM0.479163 5.54797C0.321212 5.54797 0.2 5.42669 0.2 5.26901H-0.2C-0.2 5.64776 0.100452 5.94797 0.479163 5.94797V5.54797ZM2.91331 5.54797H0.479163V5.94797H2.91331V5.54797ZM3.19247 5.26901C3.19247 5.42669 3.07126 5.54797 2.91331 5.54797V5.94797C3.29202 5.94797 3.59247 5.64776 3.59247 5.26901H3.19247ZM2.91331 4.99004C3.07126 4.99004 3.19247 5.11132 3.19247 5.26901H3.59247C3.59247 4.89025 3.29202 4.59004 2.91331 4.59004V4.99004ZM0.479163 4.99004H2.91331V4.59004H0.479163V4.99004ZM0.479163 8.42109C0.100452 8.42109 -0.2 8.72131 -0.2 9.10006H0.2C0.2 8.94237 0.321212 8.82109 0.479163 8.82109V8.42109ZM3.35414 8.42109H0.479163V8.82109H3.35414V8.42109ZM4.0333 9.10006C4.0333 8.72131 3.73285 8.42109 3.35414 8.42109V8.82109C3.51209 8.82109 3.6333 8.94237 3.6333 9.10006H4.0333ZM3.35414 9.77903C3.73285 9.77903 4.0333 9.47882 4.0333 9.10006H3.6333C3.6333 9.25775 3.51209 9.37903 3.35414 9.37903V9.77903ZM0.479163 9.77903H3.35414V9.37903H0.479163V9.77903ZM-0.2 9.10006C-0.2 9.47882 0.100452 9.77903 0.479163 9.77903V9.37903C0.321212 9.37903 0.2 9.25775 0.2 9.10006H-0.2ZM4.59163 12.9321C4.59163 13.0898 4.47042 13.2111 4.31247 13.2111V13.6111C4.69118 13.6111 4.99163 13.3109 4.99163 12.9321H4.59163ZM4.31247 12.6531C4.47042 12.6531 4.59163 12.7744 4.59163 12.9321H4.99163C4.99163 12.5534 4.69118 12.2531 4.31247 12.2531V12.6531ZM0.479163 12.6531H4.31247V12.2531H0.479163V12.6531ZM0.2 12.9321C0.2 12.7744 0.321212 12.6531 0.479163 12.6531V12.2531C0.100452 12.2531 -0.2 12.5534 -0.2 12.9321H0.2ZM0.479163 13.2111C0.321212 13.2111 0.2 13.0898 0.2 12.9321H-0.2C-0.2 13.3109 0.100452 13.6111 0.479163 13.6111V13.2111ZM4.31247 13.2111H0.479163V13.6111H4.31247V13.2111Z" fill="white"/>
</svg>
