<svg width="320" height="95" viewBox="0 0 320 95" fill="none" xmlns="http://www.w3.org/2000/svg">
<mask id="mask0_754_452" style="mask-type:luminance" maskUnits="userSpaceOnUse" x="0" y="0" width="320" height="95">
<rect width="320" height="95" fill="white"/>
</mask>
<g mask="url(#mask0_754_452)">
<path d="M53.7368 0C64.4422 12.5857 66.4685 29.6732 53.9156 49.0918C42.0533 67.4421 19.3141 81.0313 0 88.5706M320 76.8626C260.119 98.4038 185.841 103.216 126.237 60.7641C85.1607 31.5088 37.7563 13.0637 0.125121 6.48514" stroke="#6DBD44"/>
<g filter="url(#filter0_d_754_452)">
<circle cx="64" cy="54" r="33" fill="white"/>
</g>
<path fill-rule="evenodd" clip-rule="evenodd" d="M73.1157 37.3418V46.9161H70.6387L65.9036 48.5105H48V36H65.9036L70.6387 37.3418H73.1157Z" stroke="#6DBD44"/>
<path d="M73.1157 38.2109L79.8248 38.2109L81.6189 39.1643V44.9051L79.8248 45.8138H73.1157" stroke="#6DBD44" stroke-linecap="round" stroke-linejoin="round"/>
<path d="M52.1725 48.5078L54.5505 53.2243L53.3647 59.1379L53.9393 67.6962H50.5833L50.5833 73.2043H66.1222V69.641L63.439 68.2404H60.5578L62.1718 60.7215L60.5578 54.1807V48.5078" stroke="#6DBD44" stroke-linecap="round" stroke-linejoin="round"/>
<path d="M65.0874 48.5078V52.8045L60.5579 54.4753" stroke="#6DBD44"/>
<path d="M81.6189 40.0078L85.7488 40.5049V43.4105L81.6189 44.1517" stroke="#6DBD44"/>
<path d="M52.041 38.8438H55.3051" stroke="#6DBD44" stroke-linecap="round" stroke-linejoin="round"/>
<path d="M52.041 44.8438H55.3051" stroke="#6DBD44" stroke-linecap="round" stroke-linejoin="round"/>
<path d="M52.041 41.8438H56.3051" stroke="#6DBD44" stroke-linecap="round" stroke-linejoin="round"/>
</g>
<defs>
<filter id="filter0_d_754_452" x="7" y="9" width="114" height="114" filterUnits="userSpaceOnUse" color-interpolation-filters="sRGB">
<feFlood flood-opacity="0" result="BackgroundImageFix"/>
<feColorMatrix in="SourceAlpha" type="matrix" values="0 0 0 0 0 0 0 0 0 0 0 0 0 0 0 0 0 0 127 0" result="hardAlpha"/>
<feOffset dy="12"/>
<feGaussianBlur stdDeviation="12"/>
<feColorMatrix type="matrix" values="0 0 0 0 0 0 0 0 0 0 0 0 0 0 0 0 0 0 0.0435697 0"/>
<feBlend mode="normal" in2="BackgroundImageFix" result="effect1_dropShadow_754_452"/>
<feBlend mode="normal" in="SourceGraphic" in2="effect1_dropShadow_754_452" result="shape"/>
</filter>
</defs>
</svg>
