<svg width="320" height="95" viewBox="0 0 320 95" fill="none" xmlns="http://www.w3.org/2000/svg">
<mask id="mask0_754_423" style="mask-type:luminance" maskUnits="userSpaceOnUse" x="0" y="0" width="320" height="95">
<rect width="320" height="95" fill="white"/>
</mask>
<g mask="url(#mask0_754_423)">
<path d="M0 68.0047C0 68.0047 160.127 80.0367 165.071 28.5452C166.164 17.1566 162.413 7.52555 155.906 0M320 21.8867C307.923 26.862 294.589 33.1028 279.435 40.6979C203 79.0047 75.9187 66.5167 75.9187 14.0047C75.9187 8.63653 76.902 3.97973 78.6624 0" stroke="#6DBD44"/>
<g filter="url(#filter0_d_754_423)">
<circle cx="64" cy="54" r="33" fill="white"/>
</g>
<circle cx="57" cy="63" r="3.5" stroke="#6CBB43" stroke-linecap="round" stroke-linejoin="round"/>
<circle cx="78" cy="63" r="3.5" stroke="#6CBB43" stroke-linecap="round" stroke-linejoin="round"/>
<path d="M49 63.5H53" stroke="#6CBB43" stroke-linecap="round" stroke-linejoin="round"/>
<path d="M61 63.5H74" stroke="#6CBB43" stroke-linecap="round" stroke-linejoin="round"/>
<path d="M81.6898 63H84.061L87 48H71" stroke="#6CBB43" stroke-linecap="round" stroke-linejoin="round"/>
<path d="M67.5205 63L72 42H49" stroke="#6CBB43" stroke-linecap="round" stroke-linejoin="round"/>
<path d="M45 46.5H53" stroke="#6CBB43" stroke-linecap="round" stroke-linejoin="round"/>
<path d="M43 51.5H52.5" stroke="#6CBB43" stroke-linecap="round" stroke-linejoin="round"/>
<path d="M41 56.5H53" stroke="#6CBB43" stroke-linecap="round" stroke-linejoin="round"/>
</g>
<defs>
<filter id="filter0_d_754_423" x="7" y="9" width="114" height="114" filterUnits="userSpaceOnUse" color-interpolation-filters="sRGB">
<feFlood flood-opacity="0" result="BackgroundImageFix"/>
<feColorMatrix in="SourceAlpha" type="matrix" values="0 0 0 0 0 0 0 0 0 0 0 0 0 0 0 0 0 0 127 0" result="hardAlpha"/>
<feOffset dy="12"/>
<feGaussianBlur stdDeviation="12"/>
<feColorMatrix type="matrix" values="0 0 0 0 0 0 0 0 0 0 0 0 0 0 0 0 0 0 0.0435697 0"/>
<feBlend mode="normal" in2="BackgroundImageFix" result="effect1_dropShadow_754_423"/>
<feBlend mode="normal" in="SourceGraphic" in2="effect1_dropShadow_754_423" result="shape"/>
</filter>
</defs>
</svg>
