<svg width="12" height="12" viewBox="0 0 12 12" fill="none" xmlns="http://www.w3.org/2000/svg">
<path fill-rule="evenodd" clip-rule="evenodd" d="M6.00057 0C4.37091 0 4.16639 0.00700066 3.52633 0.0360034C2.59874 0.0785074 1.67766 0.336532 1.00709 1.00709C0.334031 1.68016 0.0785074 2.59924 0.0360034 3.52633C0.00700066 4.16639 0 4.37091 0 6.00057C0 7.63022 0.00700066 7.83474 0.0360034 8.4748C0.0785074 9.40139 0.337532 10.325 1.00709 10.994C1.67966 11.6666 2.60024 11.9226 3.52633 11.9651C4.16639 11.9941 4.37091 12.0011 6.00057 12.0011C7.63022 12.0011 7.83474 11.9941 8.4748 11.9651C9.40189 11.9226 10.324 11.6641 10.994 10.994C11.6676 10.3205 11.9226 9.40189 11.9651 8.4748C11.9941 7.83474 12.0011 7.63022 12.0011 6.00057C12.0011 4.37091 11.9941 4.16639 11.9651 3.52633C11.9226 2.59874 11.6641 1.67716 10.994 1.00709C10.3225 0.335532 9.39939 0.0780073 8.4748 0.0360034C7.83474 0.00700066 7.63022 0 6.00057 0ZM2.91943 6.00317C2.91943 4.30151 4.29906 2.92188 6.00072 2.92188C7.70238 2.92188 9.08201 4.30151 9.08201 6.00317C9.08201 7.70483 7.70238 9.08446 6.00072 9.08446C4.29906 9.08446 2.91943 7.70483 2.91943 6.00317ZM4.00049 6.0041C4.00049 7.1087 4.89607 8.00428 6.00068 8.00428C7.10528 8.00428 8.00087 7.1087 8.00087 6.0041C8.00087 4.89949 7.10528 4.00391 6.00068 4.00391C4.89607 4.00391 4.00049 4.89949 4.00049 6.0041ZM9.20395 3.51435C9.60164 3.51435 9.92402 3.19197 9.92402 2.79429C9.92402 2.3966 9.60164 2.07422 9.20395 2.07422C8.80627 2.07422 8.48389 2.3966 8.48389 2.79429C8.48389 3.19197 8.80627 3.51435 9.20395 3.51435Z" fill="white"/>
</svg>
