<svg width="14" height="14" viewBox="0 0 14 14" fill="none" xmlns="http://www.w3.org/2000/svg">
<path opacity="0.3" fill-rule="evenodd" clip-rule="evenodd" d="M7.00057 0C5.09933 0 4.86073 0.00816733 4.114 0.0420034C3.03183 0.0915907 1.95724 0.392615 1.17493 1.17493C0.389698 1.96016 0.0915907 3.03241 0.0420034 4.114C0.00816733 4.86073 0 5.09933 0 7.00057C0 8.9018 0.00816733 9.1404 0.0420034 9.88713C0.0915907 10.9681 0.393782 12.0456 1.17493 12.8262C1.95957 13.6108 3.03358 13.9095 4.114 13.9591C4.86073 13.993 5.09933 14.0011 7.00057 14.0011C8.9018 14.0011 9.1404 13.993 9.88713 13.9591C10.9687 13.9095 12.0445 13.6079 12.8262 12.8262C13.612 12.0404 13.9095 10.9687 13.9591 9.88713C13.993 9.1404 14.0011 8.9018 14.0011 7.00057C14.0011 5.09933 13.993 4.86073 13.9591 4.114C13.9095 3.03183 13.6079 1.95666 12.8262 1.17493C12.0427 0.391448 10.9658 0.0910074 9.88713 0.0420034C9.1404 0.00816733 8.9018 0 7.00057 0ZM3.40625 7.00104C3.40625 5.0158 5.0158 3.40625 7.00104 3.40625C8.98628 3.40625 10.5958 5.0158 10.5958 7.00104C10.5958 8.98628 8.98628 10.5958 7.00104 10.5958C5.0158 10.5958 3.40625 8.98628 3.40625 7.00104ZM4.66797 7.00149C4.66797 8.29018 5.7128 9.33501 7.00149 9.33501C8.29018 9.33501 9.33501 8.29018 9.33501 7.00149C9.33501 5.7128 8.29018 4.66797 7.00149 4.66797C5.7128 4.66797 4.66797 5.7128 4.66797 7.00149ZM10.7385 4.10396C11.2025 4.10396 11.5786 3.72785 11.5786 3.2639C11.5786 2.79994 11.2025 2.42383 10.7385 2.42383C10.2745 2.42383 9.89844 2.79994 9.89844 3.2639C9.89844 3.72785 10.2745 4.10396 10.7385 4.10396Z" fill="black"/>
</svg>
