<svg width="12" height="11" viewBox="0 0 12 11" fill="none" xmlns="http://www.w3.org/2000/svg">
<path fill-rule="evenodd" clip-rule="evenodd" d="M1.51411 0C0.645227 0 0.0769043 0.553825 0.0769043 1.28212C0.0769043 1.99455 0.628785 2.56518 1.4804 2.56518H1.49737C2.38308 2.56518 2.93392 1.99466 2.93392 1.28212C2.91722 0.553825 2.38308 0 1.51411 0ZM11.923 6.74686V11.0028H9.38402V7.0319C9.38402 6.03438 9.01678 5.35362 8.09774 5.35362C7.39617 5.35362 6.97866 5.8124 6.79499 6.2562C6.72801 6.41486 6.71077 6.63568 6.71077 6.85777V11.0028H4.1709C4.1709 11.0028 4.20511 4.27741 4.1709 3.58062H6.71052V4.63268C6.70809 4.63639 6.70531 4.64025 6.70255 4.64408C6.69946 4.64837 6.69639 4.65263 6.69383 4.65666H6.71052V4.63268C7.04793 4.12767 7.65052 3.40625 8.99929 3.40625C10.6703 3.40622 11.923 4.46706 11.923 6.74686ZM2.76669 11.0003H0.227783V3.57812H2.76669V11.0003Z" fill="white"/>
</svg>
