<svg width="23" height="25" viewBox="0 0 23 25" fill="none" xmlns="http://www.w3.org/2000/svg">
<path d="M16.3578 9.35773C15.749 11.3665 14.8358 13.0874 13.633 14.5213L13.6319 14.5226C12.426 15.9593 10.9171 17.123 9.10307 18.0015C9.10296 18.0016 9.10284 18.0016 9.10273 18.0017L9.04686 18.0287L6.80081 16.5107C6.01088 15.8777 4.85836 15.9732 4.18599 16.7304L2.00942 18.734C1.98335 18.758 1.95902 18.7838 1.9366 18.8113C1.3204 19.5654 1.48617 20.7486 2.24141 21.396L3.75587 22.7934C3.76452 22.8014 3.77336 22.8092 3.78237 22.8167C4.73916 23.6196 6.00728 24.0004 7.30938 23.888C8.92069 23.7488 10.6641 23.0069 12.3353 21.9237C14.016 20.8344 15.6742 19.3674 17.1218 17.7085C19.9844 14.4281 22.1655 10.2268 21.842 6.56885L21.842 6.56871C21.7262 5.26274 21.1269 4.08 20.1423 3.25645C20.1333 3.24898 20.1242 3.24173 20.115 3.23469L18.5393 2.03683C17.7159 1.35942 16.5199 1.44484 15.838 2.25745C15.8166 2.28301 15.7969 2.30996 15.779 2.33814L14.3148 4.64909C13.6505 5.4933 13.6962 6.65424 14.49 7.35025L16.3759 9.29824L16.3579 9.35745L16.3578 9.35773Z" stroke="#6DBD44" stroke-width="1.5" stroke-linejoin="round"/>
</svg>
