<svg width="10" height="14" viewBox="0 0 10 14" fill="none" xmlns="http://www.w3.org/2000/svg">
<path d="M6.47781 8.44449C5.89781 9.44908 5.11516 10.3217 4.13387 11.0553L3.90444 11.2265L2.28218 10.5116C1.97427 10.3338 1.57263 10.4507 1.38713 10.772L0.33322 12.1681C0.18304 12.4358 0.283512 12.8426 0.59142 13.0203L1.56466 13.6481C2.06594 13.9375 2.69008 14.0045 3.30451 13.8258C6.47908 12.9024 10.5034 6.67181 9.58901 2.94073C9.43658 2.31925 9.06561 1.81178 8.54557 1.51269L7.55484 1.00535C7.22701 0.816081 6.82487 0.933778 6.63937 1.25507L6.01481 2.74893C5.80013 3.12843 5.9006 3.53516 6.20851 3.71293L7.64375 4.76327L7.60419 5.0522C7.43249 6.30985 7.05581 7.44337 6.47731 8.44536L6.47781 8.44449Z" fill="white"/>
</svg>
