<svg width="16" height="13" viewBox="0 0 16 13" fill="none" xmlns="http://www.w3.org/2000/svg">
<path opacity="0.3" d="M15.9898 1.13024C15.7689 3.41334 14.809 8.95561 14.3216 11.5131C14.1154 12.5963 13.7079 12.9586 13.3151 12.9935C12.4595 13.0705 11.8101 12.4386 10.9816 11.9067C9.68531 11.0738 8.95248 10.5551 7.69427 9.74152C6.23966 8.80156 7.1824 8.28524 8.01097 7.44157C8.22824 7.22012 11.9967 3.85865 12.0704 3.55416C12.079 3.51564 12.0888 3.37363 12.0016 3.29901C11.9145 3.22439 11.788 3.24966 11.6972 3.27012C11.5671 3.29901 9.49627 4.64095 5.48351 7.29594C4.89553 7.6919 4.36279 7.88447 3.88528 7.87484C3.35991 7.86401 2.34843 7.58359 1.59596 7.34288C0.674095 7.04922 -0.0599611 6.89276 0.00386983 6.39449C0.0370128 6.13453 0.401586 5.86855 1.09882 5.59655C5.39268 3.76237 8.25648 2.55282 9.68899 1.9679C13.7803 0.299802 14.6298 0.00975022 15.1846 0.000121954C15.8794 -0.00950631 16.0463 0.552544 15.9898 1.13024Z" fill="black"/>
</svg>
