<svg xmlns="http://www.w3.org/2000/svg" width="121" height="41" viewBox="0 0 121 41" fill="none">
    <path fill-rule="evenodd" clip-rule="evenodd" d="M23.8609 0C21.9502 0 20.1027 0.683812 18.6524 1.92774L3.19434 15.1868C-0.0624982 17.9803 -0.0625038 23.0197 3.19434 25.8132L18.6524 39.0723C20.1027 40.3162 21.9502 41 23.8609 41H113C117.418 41 121 37.4183 121 33V8C121 3.58172 117.418 0 113 0H23.8609ZM10.4999 24C12.4329 24 13.9999 22.433 13.9999 20.5C13.9999 18.567 12.4329 17 10.4999 17C8.5669 17 6.9999 18.567 6.9999 20.5C6.9999 22.433 8.5669 24 10.4999 24Z" fill="white"/>
</svg>