<svg width="12" height="8" viewBox="0 0 12 8" fill="none" xmlns="http://www.w3.org/2000/svg">
<path fill-rule="evenodd" clip-rule="evenodd" d="M11.2769 2.20942C11.3066 2.55308 11.3236 2.83753 11.3274 3.0625C11.3314 3.2875 11.3334 3.59997 11.3334 4C11.3334 4.39999 11.3314 4.71255 11.3274 4.9375C11.3234 5.16249 11.3066 5.44694 11.2769 5.79056C11.2471 6.1344 11.2024 6.4417 11.1429 6.71251C11.0794 7.01658 10.9426 7.27294 10.7322 7.48121C10.5219 7.68954 10.2759 7.81038 9.9941 7.84372C9.11308 7.94792 7.78192 8 6.00008 8C4.2183 8 2.88704 7.94792 2.00608 7.84372C1.72437 7.81036 1.4773 7.68954 1.26496 7.48121C1.05265 7.27296 0.914783 7.01673 0.851279 6.71251C0.795717 6.4417 0.75304 6.1344 0.723289 5.79056C0.69358 5.44692 0.676693 5.16262 0.672752 4.9375C0.668708 4.71255 0.666748 4.39999 0.666748 4C0.666748 3.59997 0.668708 3.2875 0.672732 3.0625C0.676672 2.83742 0.693559 2.55308 0.723269 2.20942C0.753019 1.86562 0.797719 1.55834 0.857179 1.28749C0.920684 0.983292 1.0576 0.727016 1.26794 0.518747C1.47819 0.310368 1.72427 0.189553 2.00606 0.156191C2.88702 0.0521002 4.21836 0 6.00006 0C7.78174 0 9.11306 0.0521002 9.99408 0.156191C10.2759 0.189575 10.523 0.310368 10.7352 0.518747C10.9475 0.727082 11.0854 0.983357 11.1489 1.28749C11.2044 1.55825 11.2471 1.86556 11.2769 2.20942ZM5.0596 6.33832L8.10718 4.3384C8.22618 4.26762 8.28571 4.15502 8.28571 4.00091C8.28571 3.84673 8.2262 3.73417 8.1072 3.66346L5.0596 1.66351C4.93657 1.58011 4.80764 1.57591 4.67269 1.65101C4.54178 1.72599 4.47632 1.84271 4.47632 2.00096V6.00083C4.47632 6.15912 4.54176 6.27584 4.67269 6.35075C4.73618 6.38407 4.79768 6.4008 4.85716 6.4008C4.93649 6.4008 5.00402 6.37998 5.0596 6.33832Z" fill="white"/>
</svg>
