<?xml version="1.0" encoding="UTF-8"?>
<svg id="Layer_1" data-name="Layer 1" xmlns="http://www.w3.org/2000/svg" viewBox="0 0 200 40">
  <defs>
    <style>
      .cls-1 {
        fill: #fff;
      }

      .cls-2 {
        fill: #93c01c;
      }

      .cls-2, .cls-3 {
        fill-rule: evenodd;
      }

      .cls-3 {
        fill: #006134;
      }
    </style>
  </defs>
  <path class="cls-3" d="m68.1,40h51v-1.8C119.2,17.1,99.2,0,74.6,0H23.6v1.8c0,21,19.9,38.1,44.5,38.1Z"/>
  <path class="cls-2" d="m31.5,34.8h-2.9S0,34.8,0,34.8v-1.3C0,17.9,12.3,5.3,27.5,5.3h31.5v1.3c0,15.6-12.3,28.2-27.5,28.2Z"/>
  <g>
    <path class="cls-1" d="m12.5,13.8c.7,0,1.2.5,1.2,1.2s-.5,1.2-1.2,1.2-1.2-.5-1.2-1.2.5-1.2,1.2-1.2Zm-.9,3.3h1.9v9.1h-1.9v-9.1Z"/>
    <path class="cls-1" d="m21.5,26.1h-1.8v-4c0-.8-.5-1.3-1.3-1.3s-1.3.5-1.3,1.3v4h-1.9v-6.8h1.7v.6c.5-.5,1.2-.8,2-.8,1.6,0,2.6,1.1,2.6,2.7v4.2Z"/>
    <path class="cls-1" d="m30.1,15.8v10.3h-1.7v-.8c-.5.6-1.2,1-2.2,1-1.9,0-3.3-1.5-3.3-3.6s1.4-3.6,3.3-3.6,1.5.3,2,.8v-4.2h1.9Zm-3.5,5c-1,0-1.8.8-1.8,1.9s.8,1.9,1.8,1.9,1.7-.6,1.7-1.9-.8-1.9-1.7-1.9Z"/>
    <path class="cls-1" d="m32.9,15.7c.7,0,1.2.5,1.2,1.2s-.5,1.1-1.2,1.1-1.2-.5-1.2-1.1.5-1.2,1.2-1.2Zm-.9,3.6h1.9v6.8h-1.9v-6.8Z"/>
    <path class="cls-1" d="m45.2,26.1h-1.7v-.7c-.5.5-1.2.8-2.1.8-1.4,0-2.3-.8-2.3-2s1-2,2.6-2h1.7v-.3c0-.8-.4-1.2-1.3-1.2s-1.2.3-1.8.9l-1-1.1c.8-.9,1.8-1.4,3-1.4,1.8,0,2.9,1,2.9,2.9v4Zm-1.9-2.6h-1.5c-.6,0-.9.2-.9.7s.4.7,1,.7,1.4-.6,1.4-1.3h0Z"/>
    <path class="cls-1" d="m47,15.8h1.9v10.3h-1.9v-10.3Z"/>
  </g>
  <g>
    <path class="cls-1" d="m72.3,23.6v2.6h-10.9s0-.6,0-.6l5.3-5.7c1.4-1.6,2.1-2.6,2.1-3.7s-.8-2.2-2.1-2.2-2.1.9-2.1,2.3,0,.6.1,1.1h-3c-.1-.4-.2-.8-.2-1.2,0-2.5,2.1-4.9,5.2-4.9s5.1,2,5.1,4.7-.3,1.9-.8,2.8c-.5.8-1.3,1.8-2.4,2.9l-1.9,2h5.5Z"/>
    <path class="cls-1" d="m90.4,26.2h-2.8v-1.1c-.8.8-2,1.3-3.4,1.3-2.3,0-3.8-1.4-3.8-3.3s1.6-3.2,4.2-3.2h2.8v-.5c0-1.2-.7-1.9-2.1-1.9s-1.9.5-2.9,1.5l-1.6-1.8c1.3-1.5,2.9-2.3,4.8-2.3,2.9,0,4.7,1.7,4.7,4.7v6.6Zm-3-4.3h-2.4c-1,0-1.5.4-1.5,1.1s.6,1.2,1.6,1.2,2.3-.9,2.3-2.2h0Z"/>
    <path class="cls-1" d="m104,15.2l-5.3,12c-1,2.3-2.3,3.3-4.4,3.3s-1.3,0-1.9-.3v-2.5c.7,0,1.1,0,1.3,0,1.1,0,1.8-.3,2.3-1.5l.3-.8-4.2-10.4h3.2l2.7,7.2,2.9-7.2h3.2Z"/>
  </g>
  <g>
    <path d="m119.6,23.4c.7.8,1.6,1.2,2.4,1.2s1.1-.2,1.1-.7-.2-.5-.9-.8l-.9-.4c-1.6-.6-2.3-1.4-2.3-2.6s1.3-2.6,3.2-2.6,2.3.4,3.1,1.3l-1.2,1.4c-.6-.5-1.2-.8-1.9-.8s-.9.2-.9.6.2.5.9.8l.8.3c1.7.7,2.4,1.4,2.4,2.6s-.3,1.5-1,2c-.6.5-1.4.7-2.4.7-1.5,0-2.8-.6-3.6-1.7l1.2-1.4Z"/>
    <path d="m131.2,17.4c2.5,0,4.7,2,4.6,4.5,0,2.4-2.1,4.5-4.6,4.5-2.5,0-4.6-2-4.6-4.5,0-2.4,2.1-4.5,4.6-4.5Zm0,2.1c-1.3,0-2.2,1-2.2,2.4s.9,2.3,2.2,2.3,2.2-1,2.2-2.3-1-2.4-2.2-2.4Z"/>
    <path d="m145.6,26.2h-2.3v-5c0-1-.6-1.7-1.6-1.7s-1.6.7-1.6,1.7v5h-2.3v-8.6h2.2v.8c.6-.6,1.5-1,2.5-1,2,0,3.2,1.4,3.2,3.5v5.3Z"/>
    <path d="m153.1,19.7h-.6c-1.4,0-2.3.8-2.3,2.2v4.3h-2.3v-8.6h2.2v1c.6-.7,1.4-1.1,2.4-1.1s.5,0,.8.1v2.1Z"/>
    <path d="m161.6,26.2h-2.2v-.8c-.6.6-1.5,1-2.6,1-1.8,0-3-1.1-3-2.6s1.2-2.5,3.2-2.5h2.2v-.4c0-1-.6-1.5-1.6-1.5s-1.5.4-2.3,1.2l-1.2-1.4c1-1.2,2.2-1.8,3.8-1.8,2.2,0,3.7,1.3,3.7,3.7v5.1Zm-2.3-3.3h-1.8c-.8,0-1.2.3-1.2.9s.5.9,1.2.9,1.8-.7,1.8-1.7h0Z"/>
    <path d="m172.8,17.4c2.5,0,4.7,2,4.6,4.5,0,2.4-2.1,4.5-4.6,4.5-2.5,0-4.6-2-4.6-4.5,0-2.4,2.1-4.5,4.6-4.5Zm-2-4.3c.7,0,1.4.6,1.4,1.4s-.6,1.4-1.4,1.4-1.4-.6-1.4-1.4.6-1.4,1.4-1.4Zm2,6.4c-1.3,0-2.2,1-2.2,2.4s.9,2.3,2.2,2.3,2.2-1,2.2-2.3-1-2.4-2.2-2.4Zm2.1-6.4c.7,0,1.4.6,1.4,1.4s-.6,1.4-1.4,1.4-1.4-.6-1.4-1.4.6-1.4,1.4-1.4Z"/>
    <path d="m187.9,13.2v13h-2.2v-1.1c-.6.8-1.6,1.3-2.8,1.3-2.4,0-4.2-1.9-4.2-4.5s1.8-4.5,4.2-4.5,1.9.3,2.6,1v-5.3h2.3Zm-4.5,6.4c-1.3,0-2.2,1-2.2,2.4s1,2.4,2.2,2.4,2.2-.8,2.2-2.4-1-2.4-2.2-2.4Z"/>
    <path d="m193.8,26.4c-2.4,0-4.1-1.8-4.1-4s0-.9.2-1.3h6c-.3-1.1-1.1-1.7-2.4-1.7s-1.7.3-2.4.9l-1-1.6c1-.9,2.2-1.3,3.5-1.3,2.7,0,4.7,2,4.7,4.5s-2,4.5-4.5,4.5Zm-1.8-3.6c0,1.1.9,1.7,1.9,1.7s1.8-.6,2-1.7h-3.9Z"/>
  </g>
</svg>