<?xml version="1.0" encoding="UTF-8"?>
<svg id="Layer_1" data-name="Layer 1" xmlns="http://www.w3.org/2000/svg" viewBox="0 0 50 50">
  <defs>
    <style>
      .cls-1 {
        fill: #fff;
      }

      .cls-2 {
        fill: #55c426;
      }
    </style>
  </defs>
  <circle class="cls-2" cx="25" cy="25" r="25"/>
  <g>
    <path class="cls-1" d="m16.1,29.2h-1.8v2.3h-2.1v-2.3h-6.5v-.6l4.1-10.1h2.1l-3.7,8.9h3.9v-4h2.1v4h1.8v1.8Z"/>
    <path class="cls-1" d="m18.9,20.1c.8-1.2,2.1-1.8,3.7-1.8s2.8.6,3.7,1.8c.8,1.2,1.3,2.8,1.3,4.8,0,3.8-1.6,6.8-4.9,6.8s-4.9-3-4.9-6.8.4-3.5,1.3-4.7Zm3.7,0c-1.9,0-2.8,1.6-2.8,4.7s.9,4.9,2.8,4.9,2.8-1.8,2.8-4.9-.9-4.7-2.8-4.7Z"/>
    <path class="cls-1" d="m33.2,18.3c1.8,0,3.3,1.4,3.3,3.2s-1.5,3.2-3.3,3.2-3.3-1.4-3.3-3.2,1.5-3.2,3.3-3.2Zm0,1.5c-.9,0-1.6.7-1.6,1.7s.7,1.7,1.6,1.7,1.6-.7,1.6-1.7-.7-1.7-1.6-1.7Zm6.7-1.2h1.7l-7.4,12.9h-1.7l7.4-12.9Zm1,6.8c1.8,0,3.3,1.4,3.3,3.2s-1.5,3.2-3.3,3.2-3.3-1.4-3.3-3.2,1.5-3.2,3.3-3.2Zm0,1.5c-1,0-1.6.7-1.6,1.7s.7,1.7,1.6,1.7,1.6-.7,1.6-1.7-.7-1.7-1.6-1.7Z"/>
  </g>
</svg>