<?xml version="1.0" encoding="UTF-8"?>
<svg id="Layer_1" data-name="Layer 1" xmlns="http://www.w3.org/2000/svg" viewBox="0 0 134.2 35.3">
  <defs>
    <style>
      .cls-1 {
        fill: #fff;
      }

      .cls-2 {
        fill: #55c426;
      }
    </style>
  </defs>
  <rect class="cls-2" x="0" width="134.2" height="35.3" rx="12.6" ry="12.6"/>
  <g>
    <path class="cls-1" d="m14.6,23.8c-.7.2-1.4.3-2.1.3-2.8,0-4.4-1.4-4.4-4.1v-4.6h-1.7v-2.5h1.7v-2.8h3v2.8h3.1v2.5h-3.1v4.3c0,1.2.6,1.7,2,1.7s.6,0,1.4,0v2.5Z"/>
    <path class="cls-1" d="m21.8,12.6c3.2,0,5.9,2.6,5.9,5.7,0,3.1-2.7,5.8-5.9,5.7-3.2,0-5.9-2.6-5.8-5.7,0-3.1,2.6-5.8,5.9-5.7Zm0,2.7c-1.7,0-2.8,1.3-2.8,3s1.2,3,2.8,3,2.8-1.3,2.8-3-1.2-3-2.8-3Z"/>
    <path class="cls-1" d="m36.3,24.1c-1.3,0-2.5-.5-3.3-1.3v5h-3v-14.9h2.7v1.4c.7-1,2-1.6,3.5-1.6,3,0,5.3,2.4,5.3,5.7s-2.3,5.7-5.3,5.7Zm-.6-8.7c-1.5,0-2.8,1-2.8,3s1.2,3,2.8,3,2.8-1.2,2.8-3-1.2-3-2.8-3Z"/>
    <path class="cls-1" d="m54.8,7.2v16.6h-2.7v-1.3c-.7,1-2,1.6-3.5,1.6-3,0-5.3-2.4-5.3-5.7s2.3-5.7,5.3-5.7,2.5.4,3.3,1.3v-6.7h3Zm-5.7,8.1c-1.6,0-2.8,1.2-2.8,3s1.2,3,2.8,3,2.8-1,2.8-3-1.3-3-2.8-3Z"/>
    <path class="cls-1" d="m66.9,23.8h-2.7v-1.1c-.8.8-1.9,1.3-3.3,1.3-2.3,0-3.8-1.3-3.8-3.3s1.6-3.2,4.1-3.2h2.7v-.5c0-1.2-.7-1.9-2-1.9s-1.9.5-2.9,1.5l-1.5-1.8c1.3-1.5,2.8-2.3,4.8-2.3,2.8,0,4.7,1.7,4.7,4.7v6.5Zm-3-4.2h-2.3c-1,0-1.5.4-1.5,1.1s.6,1.2,1.6,1.2,2.3-.9,2.3-2.2h0Z"/>
    <path class="cls-1" d="m79.9,23.8h-3v-6.4c0-1.3-.8-2.1-2-2.1s-2.1.9-2.1,2.1v6.4h-3v-10.9h2.7v1c.8-.8,1.9-1.2,3.2-1.2,2.5,0,4.1,1.7,4.1,4.4v6.8Z"/>
    <path class="cls-1" d="m83.2,20.1c.9,1,2,1.5,3.1,1.5s1.4-.3,1.4-.9-.3-.6-1.1-1l-1.2-.5c-2-.8-3-1.7-3-3.3s1.6-3.3,4-3.3,2.9.6,3.9,1.6l-1.5,1.8c-.7-.7-1.5-1-2.5-1s-1.2.3-1.2.8.3.6,1.1,1l1.1.4c2.1.9,3.1,1.7,3.1,3.3s-.4,1.9-1.2,2.6c-.8.6-1.8.9-3,.9-1.9,0-3.5-.8-4.5-2.1l1.5-1.8Z"/>
    <path class="cls-1" d="m101.9,23.8h-2.7v-1.1c-.8.8-1.9,1.3-3.3,1.3-2.3,0-3.8-1.3-3.8-3.3s1.6-3.2,4.1-3.2h2.7v-.5c0-1.2-.7-1.9-2-1.9s-1.9.5-2.9,1.5l-1.5-1.8c1.3-1.5,2.8-2.3,4.8-2.3,2.8,0,4.7,1.7,4.7,4.7v6.5Zm-3-4.2h-2.3c-1,0-1.5.4-1.5,1.1s.6,1.2,1.6,1.2,2.3-.9,2.3-2.2h0Z"/>
    <path class="cls-1" d="m111.8,23.8c-.7.2-1.4.3-2.1.3-2.8,0-4.4-1.4-4.4-4.1v-4.6h-1.7v-2.5h1.7v-2.8h3v2.8h3.1v2.5h-3.1v4.3c0,1.2.6,1.7,2,1.7s.6,0,1.4,0v2.5Z"/>
    <path class="cls-1" d="m114,12.9h3v10.9h-3v-10.9Z"/>
    <path class="cls-1" d="m120.4,20.1c.9,1,2,1.5,3.1,1.5s1.4-.3,1.4-.9-.3-.6-1.1-1l-1.2-.5c-2-.8-3-1.7-3-3.3s1.6-3.3,4-3.3,2.9.6,3.9,1.6l-1.5,1.8c-.7-.7-1.5-1-2.5-1s-1.2.3-1.2.8.3.6,1.1,1l1.1.4c2.1.9,3.1,1.7,3.1,3.3s-.4,1.9-1.2,2.6c-.8.6-1.8.9-3,.9-1.9,0-3.5-.8-4.5-2.1l1.5-1.8Zm.2,5.7c.4,0,.8,0,1.3,0,.9,0,1.4-.4,1.4-1.3s0-.8-.3-1.3l1.2-.5c.9.5,1.5,1.3,1.5,2.4,0,1.6-1.3,2.8-3.4,2.8s-1.1,0-1.6-.2v-2Z"/>
  </g>
</svg>