<svg width="32" height="22" viewBox="0 0 32 22" fill="none" xmlns="http://www.w3.org/2000/svg">
<g id="Group 275">
<rect id="Rectangle" x="0.5" y="0.5" width="31" height="21" rx="2.5" stroke="black"/>
<path id="Combined Shape" fill-rule="evenodd" clip-rule="evenodd" d="M4.15386 9.49839L5.66643 8.03983C5.76208 7.95305 5.92042 8.01736 5.92042 8.14326V13.145C5.92042 13.2782 5.86465 13.4061 5.76575 13.5002L4.22794 14.9627C4.14369 15.0425 4 14.9859 4 14.8728V9.84008C4 9.71107 4.05576 9.58749 4.15386 9.49839ZM9.94262 10.0625C9.58606 10.0625 9.32881 10.1865 9.15175 10.3875V8.98438H8.52734V12.8746L9.11307 12.8731V12.5353C9.29054 12.7468 9.58646 12.9269 9.94303 12.9269C10.6932 12.9269 11.2513 12.304 11.2513 11.5064C11.2509 10.7087 10.6928 10.0625 9.94262 10.0625ZM9.82701 12.4121C9.51846 12.4121 9.27382 12.2172 9.15131 11.9309C9.09595 11.8012 9.06543 11.6528 9.06543 11.4951C9.06543 11.3374 9.09595 11.1887 9.15131 11.0593C9.27382 10.7726 9.51846 10.5781 9.82701 10.5781C10.2752 10.5781 10.6138 10.9888 10.6138 11.4955C10.6138 12.0022 10.2756 12.4121 9.82701 12.4121ZM12.4022 10.1016H11.7778V12.8668H12.4022V10.1016ZM12.4811 9.27221C12.4811 9.48296 12.3016 9.6538 12.0801 9.6538C11.8587 9.6538 11.6792 9.48296 11.6792 9.27221C11.6792 9.06147 11.8587 8.89062 12.0801 8.89062C12.3016 8.89062 12.4811 9.06147 12.4811 9.27221ZM13.1855 12.8723H13.8104L13.8148 12.0938C13.8263 11.6295 13.9058 11.1577 14.4601 10.8209C14.7019 10.674 15.0654 10.6613 15.0654 10.6613L15.0625 10.0581C15.0625 10.0581 14.8012 10.0255 14.5297 10.1623C14.2071 10.3246 13.9823 10.5745 13.822 10.8487L13.8262 10.1094H13.1917L13.1855 12.8723ZM26.0376 8.98438H25.4131V12.8735H26.0376V12.3811C26.0383 12.3717 26.0386 12.3619 26.0386 12.3516C26.0386 11.8918 26.2136 11.5312 26.4697 11.2632L27.3116 12.8722H27.9998L26.8954 10.9341C27.1691 10.7781 27.4694 10.6902 27.734 10.6661L27.7268 10.0625C26.8771 10.169 26.3557 10.6295 26.0376 11.1181V8.98438ZM16.9368 10.0625C16.5802 10.0625 16.323 10.1865 16.1459 10.3875V8.98438H15.5215V12.8743H16.1072V12.5353C16.2847 12.7468 16.5806 12.9269 16.9372 12.9269C17.6874 12.9269 18.2454 12.304 18.2454 11.5064C18.245 10.7087 17.6869 10.0625 16.9368 10.0625ZM16.8216 12.4121C16.5131 12.4121 16.2685 12.2172 16.1459 11.9309C16.0906 11.8012 16.0601 11.6528 16.0601 11.4951C16.0601 11.3374 16.0906 11.1887 16.1459 11.0593C16.2685 10.7726 16.5131 10.5781 16.8216 10.5781C17.2698 10.5781 17.6084 10.9888 17.6084 11.4955C17.6084 12.0022 17.2698 12.4121 16.8216 12.4121ZM19.9913 12.9195C19.2412 12.9195 18.6831 12.2966 18.6831 11.4989C18.6831 10.7013 19.2408 10.0551 19.9913 10.0547C20.3479 10.0547 20.6047 10.1786 20.7822 10.3797V10.1008H21.407V12.866H20.8258L20.8213 12.5278C20.6438 12.7394 20.3479 12.9195 19.9913 12.9195ZM20.1066 10.5625C19.6585 10.5625 19.3198 10.9731 19.3198 11.4799C19.3198 11.9866 19.6585 12.3972 20.1066 12.3964C20.4152 12.3964 20.6598 12.202 20.7823 11.9153C20.8377 11.7859 20.8682 11.6371 20.8682 11.4795C20.8682 11.3218 20.8377 11.1734 20.7823 11.0436C20.6598 10.7574 20.4152 10.5625 20.1066 10.5625ZM24.7621 11.3053C24.7484 10.4246 24.1773 10.0703 23.6063 10.0703C23.2475 10.0703 22.9591 10.2442 22.752 10.5V10.1094H22.1493L22.124 12.875H22.752V12.0011C22.7523 11.9951 22.7524 11.9893 22.7524 11.9837C22.7524 11.0748 22.9786 10.5724 23.5315 10.5724C23.8314 10.5728 24.1318 10.7061 24.1343 11.2831V12.87H24.7623V11.35C24.7624 11.346 24.7624 11.3419 24.7624 11.3379C24.7624 11.335 24.7624 11.3322 24.7623 11.3294V11.3053L24.7621 11.3053Z" fill="black"/>
</g>
</svg>
