<svg width="24" height="23" viewBox="0 0 24 23" fill="none" xmlns="http://www.w3.org/2000/svg">
<g id="Shape">
<path fill-rule="evenodd" clip-rule="evenodd" d="M22.4536 4.71304C21.9936 4.15743 21.3228 3.83174 20.604 3.83174H6.21954L5.97037 2.06914C5.80746 0.890879 4.79163 0 3.59372 0H2.38623C2.1179 0 1.90707 0.210746 1.90707 0.478967C1.90707 0.747189 2.1179 0.957934 2.38623 0.957934H3.59372C4.31247 0.957934 4.91621 1.49438 5.02163 2.19367L6.72745 14.484C7.02453 16.601 8.85493 18.2008 11.0016 18.2008H18.6874C18.9557 18.2008 19.1665 17.99 19.1665 17.7218C19.1665 17.4536 18.9557 17.2428 18.6874 17.2428H11.0016C9.34368 17.2428 7.91577 16.0071 7.68577 14.369H17.8824C19.9332 14.369 21.7061 12.913 22.1086 10.9013L22.9519 6.69596C23.0957 5.98709 22.9136 5.26864 22.4536 4.70346V4.71304ZM22.0126 6.51334L21.1692 10.7187C20.853 12.2801 19.473 13.4105 17.8822 13.4105H7.55142L6.35352 4.78906H20.6038C21.0351 4.78906 21.4376 4.98065 21.7155 5.31593C21.9934 5.6512 22.0988 6.08227 22.0126 6.51334ZM6.7085 21.0877C6.7085 20.034 7.57099 19.1719 8.62515 19.1719C9.67931 19.1719 10.5418 20.034 10.5418 21.0877C10.5418 22.1415 9.67931 23.0036 8.62515 23.0036C7.57099 23.0036 6.7085 22.1415 6.7085 21.0877ZM8.62483 22.0409C8.09775 22.0409 7.6665 21.6098 7.6665 21.0829C7.6665 20.5561 8.09775 20.125 8.62483 20.125C9.15191 20.125 9.58316 20.5561 9.58316 21.0829C9.58316 21.6098 9.15191 22.0409 8.62483 22.0409ZM15.333 21.0877C15.333 20.034 16.1955 19.1719 17.2497 19.1719C18.3038 19.1719 19.1663 20.034 19.1663 21.0877C19.1663 22.1415 18.3038 23.0036 17.2497 23.0036C16.1955 23.0036 15.333 22.1415 15.333 21.0877ZM17.2498 22.0409C16.7227 22.0409 16.2915 21.6098 16.2915 21.0829C16.2915 20.5561 16.7227 20.125 17.2498 20.125C17.7769 20.125 18.2082 20.5561 18.2082 21.0829C18.2082 21.6098 17.7769 22.0409 17.2498 22.0409ZM0.479163 4.78906C0.210832 4.78906 0 4.99981 0 5.26803C0 5.53625 0.210832 5.747 0.479163 5.747H2.91331C3.18164 5.747 3.39247 5.53625 3.39247 5.26803C3.39247 4.99981 3.18164 4.78906 2.91331 4.78906H0.479163ZM0 9.10397C0 8.83575 0.210832 8.625 0.479163 8.625H3.35414C3.62247 8.625 3.8333 8.83575 3.8333 9.10397C3.8333 9.37219 3.62247 9.58293 3.35414 9.58293H0.479163C0.210832 9.58293 0 9.37219 0 9.10397ZM4.31247 13.4111C4.5808 13.4111 4.79163 13.2003 4.79163 12.9321C4.79163 12.6639 4.5808 12.4531 4.31247 12.4531H0.479163C0.210832 12.4531 0 12.6639 0 12.9321C0 13.2003 0.210832 13.4111 0.479163 13.4111H4.31247Z" fill="white"/>
<path d="M22.4536 4.71304L22.2995 4.84058C22.3533 4.90553 22.442 4.92978 22.5214 4.9012C22.6007 4.87262 22.6536 4.79736 22.6536 4.71304H22.4536ZM6.21954 3.83174L6.0215 3.85973C6.03545 3.95839 6.11989 4.03174 6.21954 4.03174V3.83174ZM5.97037 2.06914L5.77225 2.09653L5.77234 2.09713L5.97037 2.06914ZM5.02163 2.19367L5.21974 2.16617L5.21939 2.16386L5.02163 2.19367ZM6.72745 14.484L6.52935 14.5115L6.52939 14.5118L6.72745 14.484ZM7.68577 14.369V14.169C7.62788 14.169 7.57283 14.1941 7.53484 14.2378C7.49686 14.2815 7.47967 14.3395 7.48772 14.3968L7.68577 14.369ZM22.1086 10.9013L21.9125 10.862L21.9125 10.8621L22.1086 10.9013ZM22.9519 6.69596L22.7559 6.65621L22.7558 6.65664L22.9519 6.69596ZM22.4536 4.70346L22.6087 4.57721C22.5553 4.51157 22.4663 4.48666 22.3866 4.51501C22.3068 4.54336 22.2536 4.61883 22.2536 4.70346H22.4536ZM21.1692 10.7187L21.3653 10.7584L21.3653 10.758L21.1692 10.7187ZM22.0126 6.51334L22.2087 6.55267L22.2087 6.55258L22.0126 6.51334ZM7.55142 13.4105L7.35333 13.438C7.36706 13.5369 7.4516 13.6105 7.55142 13.6105V13.4105ZM6.35352 4.78906V4.58906C6.29567 4.58906 6.24066 4.61411 6.20268 4.65773C6.16469 4.70136 6.14746 4.75929 6.15542 4.81659L6.35352 4.78906ZM21.7155 5.31593L21.5615 5.44356V5.44356L21.7155 5.31593ZM20.604 4.03174C21.2611 4.03174 21.8762 4.32927 22.2995 4.84058L22.6076 4.58549C22.111 3.9856 21.3844 3.63174 20.604 3.63174V4.03174ZM6.21954 4.03174H20.604V3.63174H6.21954V4.03174ZM5.77234 2.09713L6.0215 3.85973L6.41757 3.80374L6.1684 2.04114L5.77234 2.09713ZM3.59372 0.2C4.6915 0.2 5.62298 1.01695 5.77226 2.09653L6.16849 2.04174C5.99193 0.76481 4.89176 -0.2 3.59372 -0.2V0.2ZM2.38623 0.2H3.59372V-0.2H2.38623V0.2ZM2.10707 0.478967C2.10707 0.32128 2.22828 0.2 2.38623 0.2V-0.2C2.00752 -0.2 1.70707 0.100211 1.70707 0.478967H2.10707ZM2.38623 0.757934C2.22828 0.757934 2.10707 0.636655 2.10707 0.478967H1.70707C1.70707 0.857723 2.00752 1.15793 2.38623 1.15793V0.757934ZM3.59372 0.757934H2.38623V1.15793H3.59372V0.757934ZM5.21939 2.16386C5.09958 1.36907 4.41376 0.757934 3.59372 0.757934V1.15793C4.21117 1.15793 4.73284 1.61969 4.82386 2.22348L5.21939 2.16386ZM6.92555 14.4565L5.21973 2.16617L4.82353 2.22116L6.52935 14.5115L6.92555 14.4565ZM11.0016 18.0007C8.95494 18.0007 7.20877 16.4747 6.92551 14.4562L6.52939 14.5118C6.84029 16.7273 8.75492 18.4008 11.0016 18.4008V18.0007ZM18.6874 18.0007H11.0016V18.4008H18.6874V18.0007ZM18.9665 17.7218C18.9665 17.8795 18.8453 18.0007 18.6874 18.0007V18.4008C19.0661 18.4008 19.3665 18.1005 19.3665 17.7218H18.9665ZM18.6874 17.4428C18.8453 17.4428 18.9665 17.5641 18.9665 17.7218H19.3665C19.3665 17.343 19.0661 17.0428 18.6874 17.0428V17.4428ZM11.0016 17.4428H18.6874V17.0428H11.0016V17.4428ZM7.48772 14.3968C7.73167 16.1342 9.24459 17.4428 11.0016 17.4428V17.0428C9.44277 17.0428 8.09988 15.8799 7.88383 14.3412L7.48772 14.3968ZM17.8824 14.169H7.68577V14.569H17.8824V14.169ZM21.9125 10.8621C21.5286 12.7804 19.8376 14.169 17.8824 14.169V14.569C20.0287 14.569 21.8835 13.0455 22.3047 10.9405L21.9125 10.8621ZM22.7558 6.65664L21.9125 10.862L22.3047 10.9406L23.148 6.73528L22.7558 6.65664ZM22.2985 4.82971C22.7215 5.34946 22.8875 6.00726 22.7559 6.65621L23.1479 6.73571C23.3038 5.96692 23.1057 5.18781 22.6087 4.57721L22.2985 4.82971ZM22.6536 4.71304V4.70346H22.2536V4.71304H22.6536ZM21.3653 10.758L22.2087 6.55267L21.8165 6.47402L20.9731 10.6794L21.3653 10.758ZM17.8822 13.6105C19.5684 13.6105 21.0302 12.4128 21.3653 10.7584L20.9732 10.679C20.6758 12.1474 19.3776 13.2105 17.8822 13.2105V13.6105ZM7.55142 13.6105H17.8822V13.2105H7.55142V13.6105ZM6.15542 4.81659L7.35333 13.438L7.74952 13.3829L6.55161 4.76154L6.15542 4.81659ZM20.6038 4.58906H6.35352V4.98906H20.6038V4.58906ZM21.8695 5.18829C21.5542 4.80802 21.0957 4.58906 20.6038 4.58906V4.98906C20.9744 4.98906 21.3209 5.15328 21.5615 5.44356L21.8695 5.18829ZM22.2087 6.55258C22.3065 6.06384 22.1868 5.57113 21.8695 5.18829L21.5615 5.44356C21.8 5.73127 21.8912 6.1007 21.8164 6.4741L22.2087 6.55258ZM8.62515 18.9719C7.46061 18.9719 6.5085 19.9235 6.5085 21.0877H6.9085C6.9085 20.1446 7.68137 19.3719 8.62515 19.3719V18.9719ZM10.7418 21.0877C10.7418 19.9235 9.78969 18.9719 8.62515 18.9719V19.3719C9.56893 19.3719 10.3418 20.1446 10.3418 21.0877H10.7418ZM8.62515 23.2036C9.78969 23.2036 10.7418 22.252 10.7418 21.0877H10.3418C10.3418 22.0309 9.56893 22.8036 8.62515 22.8036V23.2036ZM6.5085 21.0877C6.5085 22.252 7.46061 23.2036 8.62515 23.2036V22.8036C7.68137 22.8036 6.9085 22.0309 6.9085 21.0877H6.5085ZM7.4665 21.0829C7.4665 21.7203 7.98737 22.2409 8.62483 22.2409V21.8409C8.20813 21.8409 7.8665 21.4993 7.8665 21.0829H7.4665ZM8.62483 19.925C7.98737 19.925 7.4665 20.4455 7.4665 21.0829H7.8665C7.8665 20.6666 8.20813 20.325 8.62483 20.325V19.925ZM9.78316 21.0829C9.78316 20.4455 9.26229 19.925 8.62483 19.925V20.325C9.04153 20.325 9.38316 20.6666 9.38316 21.0829H9.78316ZM8.62483 22.2409C9.26229 22.2409 9.78316 21.7203 9.78316 21.0829H9.38316C9.38316 21.4993 9.04153 21.8409 8.62483 21.8409V22.2409ZM17.2497 18.9719C16.0851 18.9719 15.133 19.9235 15.133 21.0877H15.533C15.533 20.1446 16.3059 19.3719 17.2497 19.3719V18.9719ZM19.3663 21.0877C19.3663 19.9235 18.4142 18.9719 17.2497 18.9719V19.3719C18.1934 19.3719 18.9663 20.1446 18.9663 21.0877H19.3663ZM17.2497 23.2036C18.4142 23.2036 19.3663 22.252 19.3663 21.0877H18.9663C18.9663 22.0309 18.1934 22.8036 17.2497 22.8036V23.2036ZM15.133 21.0877C15.133 22.252 16.0851 23.2036 17.2497 23.2036V22.8036C16.3059 22.8036 15.533 22.0309 15.533 21.0877H15.133ZM16.0915 21.0829C16.0915 21.7203 16.6124 22.2409 17.2498 22.2409V21.8409C16.8331 21.8409 16.4915 21.4993 16.4915 21.0829H16.0915ZM17.2498 19.925C16.6124 19.925 16.0915 20.4455 16.0915 21.0829H16.4915C16.4915 20.6666 16.8331 20.325 17.2498 20.325V19.925ZM18.4082 21.0829C18.4082 20.4455 17.8873 19.925 17.2498 19.925V20.325C17.6665 20.325 18.0082 20.6666 18.0082 21.0829H18.4082ZM17.2498 22.2409C17.8873 22.2409 18.4082 21.7203 18.4082 21.0829H18.0082C18.0082 21.4993 17.6665 21.8409 17.2498 21.8409V22.2409ZM0.2 5.26803C0.2 5.11034 0.321212 4.98906 0.479163 4.98906V4.58906C0.100452 4.58906 -0.2 4.88927 -0.2 5.26803H0.2ZM0.479163 5.547C0.321212 5.547 0.2 5.42572 0.2 5.26803H-0.2C-0.2 5.64679 0.100452 5.947 0.479163 5.947V5.547ZM2.91331 5.547H0.479163V5.947H2.91331V5.547ZM3.19247 5.26803C3.19247 5.42572 3.07126 5.547 2.91331 5.547V5.947C3.29202 5.947 3.59247 5.64678 3.59247 5.26803H3.19247ZM2.91331 4.98906C3.07126 4.98906 3.19247 5.11034 3.19247 5.26803H3.59247C3.59247 4.88927 3.29202 4.58906 2.91331 4.58906V4.98906ZM0.479163 4.98906H2.91331V4.58906H0.479163V4.98906ZM0.479163 8.425C0.100452 8.425 -0.2 8.72521 -0.2 9.10397H0.2C0.2 8.94628 0.321212 8.825 0.479163 8.825V8.425ZM3.35414 8.425H0.479163V8.825H3.35414V8.425ZM4.0333 9.10397C4.0333 8.72521 3.73285 8.425 3.35414 8.425V8.825C3.51209 8.825 3.6333 8.94628 3.6333 9.10397H4.0333ZM3.35414 9.78293C3.73285 9.78293 4.0333 9.48272 4.0333 9.10397H3.6333C3.6333 9.26165 3.51209 9.38293 3.35414 9.38293V9.78293ZM0.479163 9.78293H3.35414V9.38293H0.479163V9.78293ZM-0.2 9.10397C-0.2 9.48272 0.100452 9.78293 0.479163 9.78293V9.38293C0.321212 9.38293 0.2 9.26165 0.2 9.10397H-0.2ZM4.59163 12.9321C4.59163 13.0898 4.47042 13.2111 4.31247 13.2111V13.6111C4.69118 13.6111 4.99163 13.3109 4.99163 12.9321H4.59163ZM4.31247 12.6531C4.47042 12.6531 4.59163 12.7744 4.59163 12.9321H4.99163C4.99163 12.5534 4.69118 12.2531 4.31247 12.2531V12.6531ZM0.479163 12.6531H4.31247V12.2531H0.479163V12.6531ZM0.2 12.9321C0.2 12.7744 0.321212 12.6531 0.479163 12.6531V12.2531C0.100452 12.2531 -0.2 12.5534 -0.2 12.9321H0.2ZM0.479163 13.2111C0.321212 13.2111 0.2 13.0898 0.2 12.9321H-0.2C-0.2 13.3109 0.100452 13.6111 0.479163 13.6111V13.2111ZM4.31247 13.2111H0.479163V13.6111H4.31247V13.2111Z" fill="white"/>
</g>
</svg>
