<svg width="32" height="18" viewBox="0 0 32 18" fill="none" xmlns="http://www.w3.org/2000/svg">
<g id="Group 9">
<path id="Oval" d="M13.9782 14.7825C13.9782 16.0128 12.991 17.0025 11.7826 17.0025C10.5742 17.0025 9.58691 16.0128 9.58691 14.7825C9.58691 13.5522 10.5742 12.5625 11.7826 12.5625C12.991 12.5625 13.9782 13.5522 13.9782 14.7825Z" stroke="black" stroke-linecap="round" stroke-linejoin="round"/>
<path id="Oval Copy 16" d="M28.1306 14.7825C28.1306 16.0128 27.1433 17.0025 25.9349 17.0025C24.7265 17.0025 23.7393 16.0128 23.7393 14.7825C23.7393 13.5522 24.7265 12.5625 25.9349 12.5625C27.1433 12.5625 28.1306 13.5522 28.1306 14.7825Z" stroke="black" stroke-linecap="round" stroke-linejoin="round"/>
<path id="Path 12" d="M6.3916 15.1213H9.08725" stroke="black" stroke-linecap="round" stroke-linejoin="round"/>
<path id="Path 12 Copy" d="M14.4785 15.1213H23.2394" stroke="black" stroke-linecap="round" stroke-linejoin="round"/>
<path id="Path 13" d="M28.4213 14.7781H30.0193L30.8841 10.3245C31.4625 7.34552 29.1808 4.57812 26.1462 4.57812H21.2173" stroke="black" stroke-linecap="round" stroke-linejoin="round"/>
<path id="Path 14" d="M18.8723 14.78L21.5833 1.95616C21.7419 1.20593 21.1696 0.5 20.4028 0.5H6.39111" stroke="black" stroke-linecap="round" stroke-linejoin="round"/>
<path id="Path 15" d="M3.69531 3.55875H9.08662" stroke="black" stroke-linecap="round" stroke-linejoin="round"/>
<path id="Path 15 Copy" d="M2.34766 6.95719H8.74983" stroke="black" stroke-linecap="round" stroke-linejoin="round"/>
<path id="Path 15 Copy 2" d="M1 10.3556H9.08696" stroke="black" stroke-linecap="round" stroke-linejoin="round"/>
</g>
</svg>
