<svg width="26" height="26" viewBox="0 0 26 26" fill="none" xmlns="http://www.w3.org/2000/svg">
<path id="Shape" d="M21.5042 4.488L21.8571 4.13376V4.13376L21.5042 4.488ZM13.0507 1L13.0509 0.5H13.0507V1ZM25 12.901L24.5 12.9007V12.9008L25 12.901ZM13.0447 24.794L13.0445 25.294H13.0447V24.794ZM7.33435 23.346L7.573 22.9066L7.39929 22.8123L7.20803 22.8622L7.33435 23.346ZM1 25L0.517929 24.8673L0.287987 25.7027L1.12632 25.4838L1 25ZM2.69613 18.838L3.1782 18.9707L3.23384 18.7686L3.12867 18.5872L2.69613 18.838ZM1.10048 12.892L1.60048 12.8922V12.8922L1.10048 12.892ZM18.499 15.3824L18.7223 14.935H18.7223L18.499 15.3824ZM16.4582 14.4154L16.2879 14.8855L16.2884 14.8857L16.4582 14.4154ZM18.663 15.4624L18.8799 15.0119L18.8799 15.0119L18.663 15.4624ZM19.0707 15.7304L18.6409 15.986L18.6444 15.9916L19.0707 15.7304ZM18.8969 17.1434L19.3674 17.3124L18.8969 17.1434ZM16.8812 18.5564L16.9543 19.051L16.9545 19.051L16.8812 18.5564ZM15.0002 18.4384L14.8494 18.9151L14.8496 18.9152L15.0002 18.4384ZM13.298 17.8124L13.1007 18.2718L13.1007 18.2718L13.298 17.8124ZM8.24919 13.3981L7.8396 13.6849L7.8396 13.6849L8.24919 13.3981ZM8.1976 13.3254L8.5974 13.0251L8.59737 13.0251L8.1976 13.3254ZM8.19406 13.3207L8.59382 13.0204L8.59379 13.0203L8.19406 13.3207ZM7.96415 7.8363L7.59978 7.4939L7.59978 7.49391L7.96415 7.8363ZM8.02377 7.77239L8.39226 8.11035L8.02377 7.77239ZM9.39232 7.41039L9.36647 7.90972L9.36788 7.90979L9.39232 7.41039ZM9.4595 7.41113L9.46295 7.91112H9.46296L9.4595 7.41113ZM10.0645 7.92039L10.526 7.7279L10.5259 7.72775L10.0645 7.92039ZM10.368 8.65431L9.9058 8.84491V8.84491L10.368 8.65431ZM10.985 10.1264L11.4311 9.90072L11.4305 9.89951L10.985 10.1264ZM11.0101 10.6474L11.4564 10.8728L11.4569 10.8719L11.0101 10.6474ZM10.9666 10.7347L10.5183 10.5132L10.5183 10.5132L10.9666 10.7347ZM10.7096 11.1424L10.3336 10.8129L10.3306 10.8163L10.7096 11.1424ZM10.5563 11.3258L10.1705 11.0079L10.1705 11.0079L10.5563 11.3258ZM10.2615 11.6634L9.91011 11.3077L9.90878 11.309L10.2615 11.6634ZM10.1309 12.2694L10.5628 12.0175L10.1309 12.2694ZM11.7918 14.3284L12.1239 13.9546L12.1238 13.9545L11.7918 14.3284ZM13.9943 15.7142L13.7962 16.1732L13.7962 16.1732L13.9943 15.7142ZM14.1933 15.8034L14.4167 15.356L14.4167 15.356L14.1933 15.8034ZM14.8404 15.7294L14.4648 15.3994L14.4647 15.3995L14.8404 15.7294ZM21.8571 4.13376C19.5064 1.79221 16.3791 0.501041 13.0509 0.5L13.0506 1.5C16.115 1.50096 18.9885 2.68779 21.1514 4.84224L21.8571 4.13376ZM25.5 12.9013C25.5021 9.59094 24.2069 6.47443 21.8571 4.13376L21.1514 4.84224C23.3131 6.99557 24.5019 9.85706 24.5 12.9007L25.5 12.9013ZM13.0497 25.294C19.9093 25.294 25.4968 19.7374 25.5 12.9012L24.5 12.9008C24.4971 19.1806 19.3613 24.294 13.0497 24.294V25.294ZM13.0447 25.294H13.0497V24.294H13.0447V25.294ZM7.0957 23.7854C8.91462 24.7733 10.962 25.293 13.0445 25.294L13.045 24.294C11.1282 24.293 9.24481 23.8147 7.573 22.9066L7.0957 23.7854ZM1.12632 25.4838L7.46067 23.8298L7.20803 22.8622L0.873677 24.5162L1.12632 25.4838ZM2.21406 18.7053L0.517929 24.8673L1.48207 25.1327L3.1782 18.9707L2.21406 18.7053ZM0.600481 12.8918C0.599434 15.0758 1.1733 17.2085 2.26358 19.0888L3.12867 18.5872C2.12693 16.8595 1.59952 14.9002 1.60048 12.8922L0.600481 12.8918ZM13.0507 0.5C6.19023 0.5 0.603624 6.05562 0.600481 12.8918L1.60048 12.8922C1.60337 6.61238 6.73813 1.5 13.0507 1.5V0.5ZM18.7223 14.935C18.5704 14.8592 18.1265 14.6411 17.6861 14.4295C17.2616 14.2255 16.7956 14.0056 16.6279 13.9451L16.2884 14.8857C16.3951 14.9242 16.8002 15.1133 17.253 15.3308C17.6898 15.5407 18.1291 15.7566 18.2756 15.8297L18.7223 14.935ZM18.8799 15.0119C18.8289 14.9873 18.7772 14.9625 18.7223 14.935L18.2756 15.8297C18.3379 15.8608 18.3957 15.8886 18.4461 15.9129L18.8799 15.0119ZM19.5004 15.4748C19.4091 15.3212 19.2776 15.2275 19.1834 15.1698C19.0887 15.1118 18.9759 15.0581 18.8799 15.0119L18.4461 15.9129C18.4992 15.9385 18.5419 15.9591 18.5797 15.9782C18.6174 15.9973 18.6431 16.0115 18.6612 16.0226C18.704 16.0488 18.6726 16.0391 18.641 15.986L19.5004 15.4748ZM19.3674 17.3124C19.5068 16.9242 19.5782 16.5593 19.6036 16.2659C19.6163 16.1197 19.6182 15.9835 19.6088 15.8657C19.6016 15.7761 19.5831 15.6097 19.497 15.4692L18.6444 15.9916C18.596 15.9126 18.6057 15.8668 18.612 15.9452C18.616 15.9955 18.6164 16.0747 18.6073 16.1797C18.5893 16.3885 18.5361 16.6686 18.4263 16.9744L19.3674 17.3124ZM16.9545 19.051C17.3349 18.9946 17.8438 18.7779 18.2797 18.4998C18.7034 18.2295 19.1846 17.8217 19.3674 17.3124L18.4263 16.9744C18.36 17.1591 18.1202 17.4153 17.7418 17.6568C17.3756 17.8904 17.0012 18.0331 16.8079 18.0618L16.9545 19.051ZM14.8496 18.9152C15.6641 19.1725 16.3988 19.1331 16.9543 19.051L16.8081 18.0618C16.3346 18.1317 15.7671 18.1563 15.1508 17.9616L14.8496 18.9152ZM13.1007 18.2718C13.8349 18.5871 14.4092 18.7759 14.8494 18.9151L15.151 17.9617C14.7251 17.8269 14.186 17.6496 13.4954 17.353L13.1007 18.2718ZM7.8396 13.6849C8.19352 14.1904 10.156 17.0066 13.1007 18.2718L13.4954 17.353C10.8382 16.2113 9.01578 13.6213 8.65879 13.1114L7.8396 13.6849ZM7.7978 13.6257C7.79738 13.6251 7.7981 13.626 7.80046 13.6293C7.80268 13.6324 7.80561 13.6365 7.80946 13.642C7.81728 13.653 7.82703 13.667 7.8396 13.6849L8.65879 13.1114C8.63729 13.0807 8.61349 13.0465 8.5974 13.0251L7.7978 13.6257ZM7.79429 13.621L7.79783 13.6257L8.59737 13.0251L8.59382 13.0204L7.79429 13.621ZM6.47876 10.2514C6.47876 11.0897 6.78005 11.8851 7.08003 12.4762C7.38351 13.0743 7.70796 13.5061 7.79433 13.621L8.59379 13.0203C8.51881 12.9205 8.23562 12.5436 7.97178 12.0237C7.70445 11.4969 7.47876 10.865 7.47876 10.2514H6.47876ZM7.59978 7.49391C7.2628 7.85251 6.47876 8.68992 6.47876 10.2514H7.47876C7.47876 9.07996 8.04297 8.48257 8.32852 8.1787L7.59978 7.49391ZM7.65528 7.43443C7.63986 7.45124 7.62209 7.47017 7.59978 7.4939L8.32852 8.1787C8.34974 8.15611 8.37195 8.13249 8.39226 8.11035L7.65528 7.43443ZM8.81958 6.90039C8.50712 6.90039 8.03989 7.01508 7.65528 7.43443L8.39226 8.11035C8.55426 7.9337 8.73413 7.90039 8.81958 7.90039V6.90039ZM9.41818 6.91106C9.22974 6.9013 9.01868 6.90039 8.81958 6.90039V7.90039C9.0204 7.90039 9.20725 7.90148 9.36647 7.90972L9.41818 6.91106ZM9.45604 6.91114C9.43002 6.91132 9.42191 6.91124 9.41677 6.91099L9.36788 7.90979C9.40588 7.91165 9.44261 7.91126 9.46295 7.91112L9.45604 6.91114ZM10.5259 7.72775C10.3997 7.42527 10.2387 7.1892 10.01 7.04794C9.77315 6.9016 9.54168 6.91055 9.45604 6.91114L9.46296 7.91112C9.55172 7.91051 9.51589 7.9181 9.48448 7.8987C9.46131 7.88438 9.51568 7.90354 9.60315 8.11303L10.5259 7.72775ZM10.8303 8.46371C10.7132 8.17963 10.603 7.91253 10.526 7.7279L9.60308 8.11288C9.67912 8.29516 9.78832 8.55999 9.9058 8.84491L10.8303 8.46371ZM11.4305 9.89951C11.4309 9.90022 11.4254 9.88901 11.4114 9.85744C11.3989 9.82922 11.3828 9.79199 11.3634 9.74646C11.3245 9.65557 11.2744 9.5362 11.2171 9.39892C11.1028 9.12455 10.962 8.78309 10.8303 8.46371L9.9058 8.84491C10.1607 9.46313 10.4752 10.2273 10.5394 10.3533L11.4305 9.89951ZM11.4569 10.8719C11.659 10.4694 11.5389 10.1139 11.4311 9.90072L10.5388 10.3521C10.5623 10.3987 10.5656 10.4184 10.5659 10.4217C10.5659 10.422 10.5658 10.4197 10.5663 10.4166C10.5669 10.4134 10.5672 10.4152 10.5633 10.4229L11.4569 10.8719ZM11.4149 10.9561C11.4287 10.9283 11.442 10.9012 11.4564 10.8728L10.5637 10.422C10.5471 10.455 10.5319 10.4858 10.5183 10.5132L11.4149 10.9561ZM11.0857 11.4719C11.2592 11.2739 11.3379 11.1121 11.4149 10.9561L10.5183 10.5132C10.4461 10.6595 10.415 10.72 10.3336 10.8129L11.0857 11.4719ZM10.9422 11.6438C10.9945 11.5804 11.0427 11.5219 11.0886 11.4685L10.3306 10.8163C10.2765 10.8792 10.2214 10.9461 10.1705 11.0079L10.9422 11.6438ZM10.6129 12.0191C10.7247 11.9087 10.8451 11.7616 10.9422 11.6438L10.1705 11.0079C10.0621 11.1393 9.97753 11.2411 9.91011 11.3077L10.6129 12.0191ZM10.5628 12.0175C10.5452 11.9873 10.5503 11.9853 10.553 12.0068C10.5544 12.0176 10.5547 12.0313 10.5529 12.0466C10.551 12.0617 10.5474 12.0749 10.5436 12.0852C10.5364 12.1045 10.5303 12.1083 10.5423 12.0934C10.548 12.0864 10.5563 12.077 10.5687 12.0639C10.5814 12.0506 10.5955 12.0364 10.6142 12.0178L9.90878 11.309C9.84868 11.3688 9.68729 11.52 9.60688 11.735C9.50835 11.9986 9.55239 12.27 9.69897 12.5213L10.5628 12.0175ZM12.1238 13.9545C11.2958 13.2192 10.7277 12.3002 10.5628 12.0175L9.69897 12.5213C9.88171 12.8346 10.5133 13.8616 11.4598 14.7022L12.1238 13.9545ZM14.1925 15.2551C13.7887 15.0808 13.0174 14.7483 12.1239 13.9546L11.4598 14.7022C12.472 15.6013 13.3581 15.9841 13.7962 16.1732L14.1925 15.2551ZM14.4167 15.356C14.3522 15.3238 14.2699 15.2885 14.1925 15.2551L13.7962 16.1732C13.8844 16.2113 13.9363 16.2339 13.97 16.2507L14.4167 15.356ZM14.4647 15.3995C14.4442 15.4228 14.4381 15.4244 14.4469 15.419C14.4517 15.4161 14.4598 15.4118 14.4707 15.4079C14.4817 15.404 14.4931 15.4014 14.5038 15.4001C14.5257 15.3975 14.5334 15.4016 14.519 15.3979C14.5029 15.3938 14.4705 15.3829 14.4167 15.356L13.97 16.2507C14.1525 16.3419 14.3771 16.4226 14.6234 16.3929C14.8901 16.3608 15.0808 16.2134 15.2162 16.0593L14.4647 15.3995ZM15.3712 14.2842C15.1924 14.5497 14.6442 15.1952 14.4648 15.3994L15.216 16.0594C15.3863 15.8656 15.9796 15.1711 16.2007 14.8426L15.3712 14.2842ZM16.6285 13.9453C16.507 13.9013 16.2812 13.8167 16.0387 13.844C15.7412 13.8775 15.5255 14.0549 15.3712 14.2842L16.2007 14.8426C16.2267 14.8041 16.2357 14.8022 16.2226 14.8114C16.2155 14.8164 16.2044 14.8227 16.19 14.8281C16.1755 14.8335 16.1618 14.8365 16.1505 14.8378C16.1295 14.8401 16.1258 14.8358 16.153 14.842C16.1659 14.845 16.183 14.8498 16.2063 14.8572C16.2296 14.8647 16.256 14.8739 16.2879 14.8855L16.6285 13.9453Z" fill="black"/>
</svg>
