<svg width="160" height="23" viewBox="0 0 160 23" fill="none" xmlns="http://www.w3.org/2000/svg">
<path fill-rule="evenodd" clip-rule="evenodd" d="M39.03 4.05851H38.6397C36.5807 4.05851 34.9115 2.32342 34.9115 0.184715V0H39.183C41.2421 0 42.9108 1.73509 42.9108 3.8738V4.05851H39.03ZM3.52201 13.1519L3.52219 13.1519C4.20896 12.9402 5.7136 12.4766 7.8991 13.1325C8.39279 13.2807 8.92123 13.5178 9.42038 13.7417C10.0984 14.0459 10.7223 14.3258 11.1318 14.3258C11.9474 14.3258 12.6091 13.6544 12.6091 12.8263C12.6091 11.9986 11.9474 11.3281 11.1318 11.3281H5.24529C4.40718 11.3281 3.41323 11.9611 3.38281 13.1943C3.42456 13.1819 3.47084 13.1677 3.52158 13.1521L3.5217 13.152L3.52201 13.1519ZM3.39879 22.6561C1.41324 21.8992 0 19.9543 0 17.6736V13.2366C0 10.2964 2.34916 7.91406 5.24536 7.91406H11.1318C13.8039 7.91406 15.9696 10.1183 15.9696 12.8282C15.9696 15.5396 13.8039 17.7377 11.1318 17.7377C10.5029 17.7377 9.89361 17.6157 9.35078 17.3939L7.05403 16.4613C6.6193 16.2956 6.19486 16.2049 5.72549 16.2049C3.73339 16.2049 2.11986 17.8422 2.11986 19.8617C2.11986 20.9828 2.61683 21.9861 3.39879 22.6561ZM40.8452 22.9961H39.1619C38.2363 22.9961 37.4782 22.2269 37.4782 21.2881V20.7929V13.2366C37.4782 12.1839 36.6373 11.3306 35.5998 11.3306H33.2151C32.179 11.3306 31.3381 12.1839 31.3381 13.2366V18.0188V19.6922V21.2881C31.3381 22.2269 30.58 22.9961 29.6544 22.9961C28.7278 22.9961 27.9711 22.2269 27.9711 21.2881V19.6922V13.2366C27.9711 12.1839 27.1302 11.3306 26.0927 11.3306H23.708C22.6705 11.3306 21.8292 12.1839 21.8292 13.2366V18.0188V20.7929V21.2881C21.8292 22.2269 21.0725 22.9961 20.1459 22.9961H18.4626V20.7929V18.0188V13.2366C18.4626 10.2964 20.8104 7.91406 23.708 7.91406H26.0927C27.4676 7.91406 28.7185 8.45064 29.6544 9.32911C30.5889 8.45064 31.8402 7.91406 33.2151 7.91406H35.5998C38.4974 7.91406 40.8452 10.2964 40.8452 13.2366V18.0188V20.7929V22.9961ZM81.0098 7.91406H82.693C83.6186 7.91406 84.3767 8.68331 84.3767 9.62209V10.1174V17.6736C84.3767 18.7263 85.2177 19.5796 86.2551 19.5796H88.6399C89.6773 19.5796 90.5168 18.7263 90.5168 17.6736V12.8914V11.218V9.62209C90.5168 8.68331 91.2749 7.91406 92.202 7.91406C93.1271 7.91406 93.8852 8.68331 93.8852 9.62209V11.218V17.6736C93.8852 18.7263 94.7247 19.5796 95.7622 19.5796H98.1469C99.1844 19.5796 100.026 18.7263 100.026 17.6736V12.8914V10.1174V9.62209C100.026 8.68331 100.783 7.91406 101.709 7.91406H103.392V10.1174V12.8914V17.6736C103.392 20.6138 101.045 22.9961 98.1469 22.9961H95.7622C94.3873 22.9961 93.1365 22.4596 92.202 21.5811C91.266 22.4596 90.0147 22.9961 88.6399 22.9961H86.2551C83.3575 22.9961 81.0098 20.6138 81.0098 17.6736V12.8914V10.1174V7.91406ZM12.764 19.7947C13.121 19.9338 13.4453 20.1375 13.7261 20.3902C14.3747 20.9775 14.7832 21.8308 14.7832 22.782V22.9971H13.7261H12.764H12.5726H12.2258H11.6881H11.149H10.6109H10.0732H9.53551H8.99735H8.45826H7.92058H7.38242H6.84474H6.30565H5.76796H5.72444C5.55551 22.9971 5.39079 22.9838 5.22981 22.9572C5.04403 22.9263 4.8648 22.8793 4.69212 22.818C4.50353 22.7497 4.3229 22.6642 4.15444 22.5626C3.96023 22.4448 3.7796 22.3085 3.61488 22.1533C3.40664 21.9552 3.226 21.7278 3.07719 21.479C2.79642 21.007 2.63403 20.4543 2.63403 19.8617C2.63403 19.2705 2.79642 18.7168 3.07719 18.2443C3.2026 18.033 3.35142 17.8393 3.52129 17.6641L3.51614 17.8018C3.51614 18.0102 3.5503 18.2097 3.61488 18.3958C3.72298 18.7035 3.91016 18.9737 4.15444 19.1769C4.31261 19.3108 4.49417 19.4162 4.69212 19.4875C4.86059 19.5459 5.04122 19.582 5.22981 19.5862L5.27473 19.5877L5.76796 19.5848L6.30565 19.5834L6.84474 19.581H7.00057H7.38242H7.92058H8.45826H8.99735H9.53551H10.0732H10.6109H11.149H11.6287H11.6881C11.8711 19.5848 12.0508 19.6038 12.2258 19.6385C12.3433 19.6613 12.4593 19.6907 12.5726 19.7268H12.5754L12.5833 19.7292L12.5913 19.7334H12.5922L12.6002 19.7358L12.6081 19.7387L12.6133 19.7401L12.6161 19.7415L12.6254 19.7439L12.6334 19.7467L12.6414 19.7496L12.6493 19.752L12.6531 19.7534L12.6582 19.7548L12.6662 19.7577L12.6727 19.76L12.6741 19.7615L12.6821 19.7643L12.6914 19.7667H12.6924L12.6994 19.7695L12.7069 19.7719L12.7125 19.7748L12.7148 19.7762L12.7228 19.779L12.7321 19.7814L12.7401 19.7857L12.7481 19.7881L12.7518 19.7895L12.756 19.7909L12.764 19.7947ZM140.789 17.5598C140.789 20.5656 138.387 23.003 135.425 23.003H129.948C126.986 23.003 124.583 20.5656 124.583 17.5598V13.1214C124.583 10.1157 126.986 7.67969 129.948 7.67969H135.425C138.387 7.67969 140.789 10.1157 140.789 13.1214V17.5598ZM128.186 16.0179V17.5602C128.186 18.546 128.975 19.3461 129.948 19.3461H132.943H133.036H135.425C136.398 19.3461 137.186 18.546 137.186 17.5602V14.6641V13.1218C137.186 12.1361 136.398 11.3359 135.425 11.3359H132.43H132.336H129.948C128.975 11.3359 128.186 12.1361 128.186 13.1218V16.0179ZM116.727 23.003C119.689 23.003 122.091 20.5656 122.091 17.5598V13.1214C122.091 10.1157 119.689 7.67969 116.727 7.67969H111.249C108.286 7.67969 105.885 10.1157 105.885 13.1214V17.5598C105.885 20.5656 108.286 23.003 111.249 23.003H116.727ZM109.488 17.5602V16.0179V13.1218C109.488 12.1361 110.277 11.3359 111.249 11.3359H113.638H113.731H116.727C117.699 11.3359 118.488 12.1361 118.488 13.1218V14.6641V17.5602C118.488 18.546 117.699 19.3461 116.727 19.3461H114.338H114.244H111.249C110.277 19.3461 109.488 18.546 109.488 17.5602ZM43.3381 4.05469H45.1402C46.1305 4.05469 46.941 4.87712 46.941 5.88332V13.5535V16.0118V17.5532C46.941 18.5404 47.7295 19.34 48.701 19.34H52.3038H54.6922C55.6637 19.34 56.4522 18.5404 56.4522 17.5532V13.1162C56.4522 12.129 55.6637 11.3303 54.6922 11.3303H51.1844C49.3772 11.3303 47.911 9.84259 47.911 8.00873V7.67302H54.6922C57.6544 7.67302 60.0551 10.1104 60.0551 13.1162V17.5532C60.0551 20.5599 57.6544 22.9958 54.6922 22.9958H48.701C45.7402 22.9958 43.3381 20.5599 43.3381 17.5532V9.38104V4.05469ZM158.198 4.05469H160V6.91849V9.38104V17.5532C160 20.5599 157.598 22.9958 154.636 22.9958H148.646C145.684 22.9958 143.283 20.5599 143.283 17.5532V13.1162C143.283 10.1104 145.684 7.67302 148.646 7.67302H155.427V8.00873C155.427 9.84259 153.961 11.3303 152.154 11.3303H148.646C147.674 11.3303 146.886 12.1299 146.886 13.1162V17.5532C146.886 18.5404 147.674 19.34 148.646 19.34H151.034H154.636C155.609 19.34 156.396 18.5404 156.396 17.5532V16.0118V13.5535V6.91849H156.397V5.88332C156.397 4.87712 157.208 4.05469 158.198 4.05469ZM75.8833 11.0362V11.048V11.0618V11.0737V11.0765V11.0856V11.0989V11.1046V11.1112L75.8819 11.1231V11.1311V11.1349V11.1473V11.1592V11.1606L75.8805 11.1725V11.1848V11.1862V11.1967L75.8796 11.2085V11.2142V11.2209L75.8782 11.2328V11.2408L75.8768 11.2446V11.2584L75.8754 11.2689V11.2703V11.2821L75.874 11.2945V11.2959L75.8725 11.3064L75.8716 11.3182V11.3239V11.3306L75.8702 11.3425L75.8688 11.3505V11.3543L75.8674 11.3667L75.866 11.3771V11.3785L75.8651 11.3909L75.8637 11.4028V11.4042L75.8623 11.4146L75.8608 11.427V11.4308L75.8594 11.4388L75.858 11.4507L75.8571 11.4574V11.4631L75.8557 11.4749L75.8543 11.4844L75.8529 11.4868L75.8515 11.4992L75.8506 11.511L75.8477 11.5229L75.8463 11.5338V11.5376L75.8449 11.5457L75.8426 11.558V11.5647L75.8412 11.5699L75.8384 11.5818L75.837 11.5913V11.5941L75.8346 11.6046L75.8332 11.6169V11.6179L75.8304 11.6288L75.8281 11.6407V11.6435L75.8267 11.6516L75.8239 11.6635L75.8225 11.6701L75.8215 11.6758L75.8187 11.6877L75.8173 11.6957L75.8159 11.6981L75.815 11.7105L75.8122 11.7223L75.8094 11.7347L75.807 11.7451L75.8056 11.748L75.8042 11.757L75.8014 11.7693L75.8005 11.7746L75.7991 11.7798L75.7963 11.7921L75.7935 11.8002V11.8026L75.7897 11.8149L75.7869 11.8254V11.8268C75.712 12.1264 75.5946 12.4085 75.4402 12.6668C75.3152 12.8767 75.1664 13.0723 74.9975 13.2461L75.0026 13.1084C75.0026 12.9009 74.967 12.7015 74.9025 12.5158C74.7958 12.2067 74.6072 11.9379 74.3648 11.7333C74.2066 11.6008 74.0246 11.4949 73.8266 11.4241C73.6582 11.3638 73.4761 11.3292 73.2875 11.3239H73.2426L72.7498 11.3249L72.2122 11.3277L71.674 11.3292L71.5172 11.3306H71.1363H70.5972H70.0591H69.5214H68.9837H68.4456H67.9065H67.3688H66.8886L66.8306 11.3292C66.6477 11.3263 66.467 11.3064 66.2929 11.2731C66.1745 11.2489 66.0585 11.2195 65.9462 11.1848L65.9438 11.1834L65.9345 11.1805L65.9265 11.1782H65.9251L65.8938 11.1672L65.8858 11.1644L65.8764 11.162L65.8198 11.1406L65.8119 11.1378L65.7866 11.1283H65.7857C65.4179 10.9892 65.08 10.7807 64.7927 10.52C64.1427 9.93406 63.7341 9.07934 63.7341 8.12822V7.91406H64.7927H65.7538H65.9462H66.2929H66.8306H67.3688H67.9065H68.4456H68.9837H69.5214H70.0591H70.5972H71.1363H71.674H72.2122H72.7498H72.7934C72.9618 7.91406 73.127 7.92736 73.2875 7.953C73.4733 7.98386 73.6539 8.0304 73.8266 8.09355C74.0152 8.16146 74.1944 8.24693 74.3648 8.34902C74.5585 8.46536 74.7392 8.60306 74.9025 8.75834C75.1107 8.95635 75.2927 9.18238 75.4402 9.4312C75.5946 9.68904 75.712 9.97157 75.7869 10.2712V10.2722L75.7897 10.2831L75.7935 10.294V10.2978L75.7963 10.3059L75.7991 10.3177L75.8005 10.3234L75.8014 10.3287L75.8042 10.3405L75.8056 10.3486L75.807 10.3529L75.8094 10.3633L75.8122 10.3752L75.815 10.3875L75.8159 10.398L75.8173 10.4023L75.8187 10.4103L75.8215 10.4222L75.8225 10.4274L75.8239 10.4341L75.8267 10.445L75.8281 10.4545V10.4569L75.8304 10.4692L75.8332 10.4797V10.4811L75.8346 10.4915L75.837 10.5039V10.5063L75.8384 10.5157L75.8412 10.5281L75.8426 10.5333V10.54L75.8449 10.5518L75.8463 10.5599V10.5628L75.8477 10.5746L75.8506 10.5855V10.5865L75.8515 10.5988L75.8529 10.6107L75.8543 10.6121L75.8557 10.6231L75.8571 10.6349V10.6387L75.858 10.6468L75.8594 10.6592L75.8608 10.6672V10.671L75.8623 10.6829L75.8637 10.6938V10.6952L75.8651 10.7071L75.866 10.719V10.7204L75.8674 10.7313L75.8688 10.7432V10.7475L75.8702 10.7551L75.8716 10.7674V10.7741V10.7793L75.8725 10.7912L75.874 10.8021V10.8035L75.8754 10.8154V10.8277V10.8287L75.8768 10.8396V10.8515L75.8782 10.8557V10.8638L75.8796 10.8757V10.8838V10.889L75.8805 10.9008V10.9103V10.9132V10.9251L75.8819 10.9374V10.9384V10.9493V10.9626V10.9654V10.9744L75.8833 10.9868V10.9934V10.9987V11.0105V11.0215V11.0243V11.0362ZM67.3858 19.5822H73.2718C74.1104 19.5822 75.1043 18.9497 75.1343 17.7161C75.093 17.7283 75.0473 17.7424 74.9972 17.7579C74.3119 17.9695 72.8059 18.4345 70.618 17.7778C70.1245 17.6298 69.5961 17.393 69.097 17.1694C68.419 16.8656 67.7949 16.5859 67.3858 16.5859C66.5697 16.5859 65.908 17.2559 65.908 18.0841C65.908 18.9122 66.5697 19.5822 67.3858 19.5822ZM75.1189 8.25781C77.104 9.01662 78.5172 10.9616 78.5172 13.2423V17.6792C78.5172 17.7675 78.5113 17.8547 78.5053 17.9418C78.5036 17.9667 78.5019 17.9915 78.5004 18.0164H78.5172V18.222V18.7681V19.3137V19.8597V20.4053V20.7572V20.9524V21.9286V23.0018H78.3062C77.468 23.0018 76.709 22.6694 76.1437 22.13C75.3182 22.6794 74.3327 23.0018 73.2719 23.0018H67.3858C64.7138 23.0018 62.5476 20.7985 62.5476 18.0871C62.5476 15.3758 64.7138 13.1777 67.3858 13.1777C68.0148 13.1777 68.6236 13.2997 69.1669 13.5215L71.4632 14.4555C71.8984 14.6198 72.3228 14.711 72.7931 14.711C74.7838 14.711 76.3974 13.0737 76.3974 11.0537C76.3974 9.9326 75.9018 8.92972 75.1189 8.25781Z" fill="white"/>
</svg>
