<svg width="14" height="14" viewBox="0 0 14 14" fill="none" xmlns="http://www.w3.org/2000/svg">
<path opacity="0.3" fill-rule="evenodd" clip-rule="evenodd" d="M6.99959 0C5.09835 0 4.85975 0.00816733 4.11302 0.0420034C3.03085 0.0915907 1.95626 0.392615 1.17395 1.17493C0.388722 1.96016 0.0906142 3.03241 0.0410268 4.114C0.00719076 4.86073 -0.000976562 5.09933 -0.000976562 7.00057C-0.000976562 8.9018 0.00719076 9.1404 0.0410268 9.88713C0.0906142 10.9681 0.392805 12.0456 1.17395 12.8262C1.9586 13.6108 3.0326 13.9095 4.11302 13.9591C4.85975 13.993 5.09835 14.0011 6.99959 14.0011C8.90083 14.0011 9.13943 13.993 9.88616 13.9591C10.9677 13.9095 12.0435 13.6079 12.8252 12.8262C13.611 12.0404 13.9086 10.9687 13.9582 9.88713C13.992 9.1404 14.0002 8.9018 14.0002 7.00057C14.0002 5.09933 13.992 4.86073 13.9582 4.114C13.9086 3.03183 13.607 1.95666 12.8252 1.17493C12.0417 0.391448 10.9648 0.0910074 9.88616 0.0420034C9.13943 0.00816733 8.90083 0 6.99959 0ZM3.40479 7.00104C3.40479 5.0158 5.01433 3.40625 6.99958 3.40625C8.98482 3.40625 10.5944 5.0158 10.5944 7.00104C10.5944 8.98628 8.98482 10.5958 6.99958 10.5958C5.01433 10.5958 3.40479 8.98628 3.40479 7.00104ZM4.66602 6.99758C4.66602 8.28627 5.71085 9.33111 6.99954 9.33111C8.28823 9.33111 9.33306 8.28627 9.33306 6.99758C9.33306 5.7089 8.28823 4.66406 6.99954 4.66406C5.71085 4.66406 4.66602 5.7089 4.66602 6.99758ZM10.7368 4.10201C11.2008 4.10201 11.5769 3.7259 11.5769 3.26194C11.5769 2.79799 11.2008 2.42188 10.7368 2.42188C10.2728 2.42188 9.89673 2.79799 9.89673 3.26194C9.89673 3.7259 10.2728 4.10201 10.7368 4.10201Z" fill="black"/>
</svg>
