<svg width="14" height="13" viewBox="0 0 14 13" fill="none" xmlns="http://www.w3.org/2000/svg">
<path opacity="0.3" fill-rule="evenodd" clip-rule="evenodd" d="M1.69852 0C0.671654 0 0 0.65452 0 1.51524C0 2.3572 0.652223 3.03158 1.65868 3.03158H1.67873C2.72548 3.03158 3.37647 2.35732 3.37647 1.51524C3.35674 0.65452 2.72548 0 1.69852 0ZM14 7.97143V13.0011H10.9993V8.30829C10.9993 7.12941 10.5653 6.32487 9.47919 6.32487C8.65006 6.32487 8.15665 6.86707 7.93958 7.39156C7.86042 7.57906 7.84004 7.84004 7.84004 8.10251V13.0011H4.83838C4.83838 13.0011 4.87881 5.05299 4.83838 4.22951H7.83975V5.47285C7.83687 5.47724 7.83359 5.4818 7.83033 5.48633C7.82668 5.49139 7.82305 5.49643 7.82002 5.50119H7.83975V5.47285C8.23851 4.87602 8.95065 4.02344 10.5447 4.02344C12.5195 4.02341 14 5.27712 14 7.97143ZM3.17875 12.9982H0.178223V4.22656H3.17875V12.9982Z" fill="black"/>
</svg>
