<svg width="160" height="23" viewBox="0 0 160 23" fill="none" xmlns="http://www.w3.org/2000/svg">
<path fill-rule="evenodd" clip-rule="evenodd" d="M81.0098 7.91406H82.693C83.6186 7.91406 84.3767 8.68333 84.3767 9.62211V10.1174V17.6737C84.3767 18.7265 85.2177 19.5798 86.2551 19.5798H88.6399C89.6773 19.5798 90.5169 18.7265 90.5169 17.6737V12.8915V11.2181V9.62211C90.5169 8.68333 91.275 7.91406 92.202 7.91406C93.1271 7.91406 93.8852 8.68333 93.8852 9.62211V11.2181V17.6737C93.8852 18.7265 94.7248 19.5798 95.7622 19.5798H98.147C99.1844 19.5798 100.026 18.7265 100.026 17.6737V12.8915V10.1174V9.62211C100.026 8.68333 100.783 7.91406 101.709 7.91406H103.392V10.1174V12.8915V17.6737C103.392 20.614 101.045 22.9964 98.147 22.9964H95.7622C94.3874 22.9964 93.1365 22.4598 92.202 21.5813C91.2661 22.4598 90.0147 22.9964 88.6399 22.9964H86.2551C83.3575 22.9964 81.0098 20.614 81.0098 17.6737V12.8915V10.1174V7.91406Z" fill="#6DBD44"/>
<path fill-rule="evenodd" clip-rule="evenodd" d="M40.845 22.9964H39.1617C38.2361 22.9964 37.478 22.2271 37.478 21.2883V20.793V13.2367C37.478 12.1839 36.6371 11.3306 35.5996 11.3306H33.2149C32.1788 11.3306 31.3379 12.1839 31.3379 13.2367V18.0189V19.6923V21.2883C31.3379 22.2271 30.5798 22.9964 29.6542 22.9964C28.7276 22.9964 27.9709 22.2271 27.9709 21.2883V19.6923V13.2367C27.9709 12.1839 27.13 11.3306 26.0925 11.3306H23.7078C22.6703 11.3306 21.8289 12.1839 21.8289 13.2367V18.0189V20.793V21.2883C21.8289 22.2271 21.0722 22.9964 20.1457 22.9964H18.4624V20.793V18.0189V13.2367C18.4624 10.2964 20.8102 7.91406 23.7078 7.91406H26.0925C27.4674 7.91406 28.7182 8.45065 29.6542 9.32913C30.5887 8.45065 31.84 7.91406 33.2149 7.91406H35.5996C38.4972 7.91406 40.845 10.2964 40.845 13.2367V18.0189V20.793V22.9964Z" fill="#006134"/>
<path fill-rule="evenodd" clip-rule="evenodd" d="M13.7259 20.3902C13.4451 20.1376 13.1208 19.9339 12.7637 19.7947L12.7558 19.7909L12.7516 19.7895L12.7478 19.7881L12.7399 19.7857L12.7319 19.7814L12.7226 19.7791L12.7146 19.7762L12.7123 19.7748L12.7066 19.7719L12.6992 19.7696L12.6921 19.7667H12.6912L12.6818 19.7643L12.6739 19.7615L12.6725 19.7601L12.6659 19.7577L12.658 19.7548L12.6528 19.7534L12.6491 19.752L12.6411 19.7496L12.6332 19.7468L12.6252 19.7439L12.6159 19.7415L12.6131 19.7401L12.6079 19.7387L12.5999 19.7358L12.592 19.7335H12.5911L12.5831 19.7292L12.5751 19.7268H12.5723C12.4591 19.6907 12.343 19.6613 12.2256 19.6385C12.0506 19.6038 11.8709 19.5848 11.6879 19.581H11.6285H11.1488H10.6106H10.073H9.53527H8.99712H8.45803H7.92034H7.38219H7.00033H6.8445L6.30541 19.5834L5.76772 19.5848L5.27449 19.5877L5.22957 19.5863C5.04098 19.582 4.86035 19.5459 4.69188 19.4875C4.49393 19.4163 4.31236 19.3109 4.15419 19.1769C3.90992 18.9737 3.72273 18.7035 3.61463 18.3958C3.55006 18.2097 3.5159 18.0102 3.5159 17.8018L3.52104 17.6641C3.35117 17.8393 3.20236 18.033 3.07695 18.2443C2.79617 18.7168 2.63379 19.2705 2.63379 19.8617C2.63379 20.4543 2.79617 21.007 3.07695 21.479C3.22576 21.7279 3.40639 21.9553 3.61463 22.1533C3.77936 22.3086 3.95999 22.4449 4.15419 22.5627C4.32266 22.6643 4.50329 22.7497 4.69188 22.8181C4.86456 22.8794 5.04379 22.9264 5.22957 22.9573C5.39055 22.9838 5.55527 22.9971 5.7242 22.9971H5.76772H6.30541H6.8445H7.38219H7.92034H8.45803H8.99712H9.53527H10.073H10.6106H11.1488H11.6879H12.2256H12.5723H12.7637H13.7259H14.783V22.782C14.783 21.8309 14.3745 20.9776 13.7259 20.3902" fill="#6DBD44"/>
<mask id="mask0_127_1127" style="mask-type:luminance" maskUnits="userSpaceOnUse" x="0" y="7" width="16" height="16">
<path fill-rule="evenodd" clip-rule="evenodd" d="M0 7.91406H15.9694V22.6564H0V7.91406Z" fill="white"/>
</mask>
<g mask="url(#mask0_127_1127)">
<path fill-rule="evenodd" clip-rule="evenodd" d="M3.38257 13.1943V13.1943C3.98905 13.0153 5.5511 12.4279 7.89886 13.1326C9.06314 13.4821 10.4207 14.3259 11.1315 14.3259C11.9472 14.3259 12.6089 13.6544 12.6089 12.8263C12.6089 11.9986 11.9472 11.3281 11.1315 11.3281H5.24505C4.40693 11.3281 3.41299 11.9611 3.38257 13.1943M3.39856 22.6564V22.6564C1.413 21.8994 -0.000244141 19.9544 -0.000244141 17.6737V13.2367C-0.000244141 10.2964 2.34892 7.91406 5.24513 7.91406H11.1316C13.8037 7.91406 15.9694 10.1183 15.9694 12.8283C15.9694 15.5397 13.8037 17.7378 11.1316 17.7378C10.5027 17.7378 9.89338 17.6158 9.35055 17.394L7.0538 16.4614C6.61906 16.2957 6.19462 16.205 5.72526 16.205C3.73315 16.205 2.11962 17.8423 2.11962 19.8618C2.11962 20.983 2.61659 21.9863 3.39856 22.6564" fill="#006134"/>
</g>
<mask id="mask1_127_1127" style="mask-type:luminance" maskUnits="userSpaceOnUse" x="34" y="0" width="9" height="5">
<path fill-rule="evenodd" clip-rule="evenodd" d="M34.9114 0H42.9107V4.05848H34.9114V0Z" fill="white"/>
</mask>
<g mask="url(#mask1_127_1127)">
<path fill-rule="evenodd" clip-rule="evenodd" d="M38.6396 4.05857H39.0299H42.9107V3.87385C42.9107 1.73511 41.242 0 39.1829 0H34.9114V0.184718C34.9114 2.32346 36.5806 4.05857 38.6396 4.05857" fill="#6DBD44"/>
</g>
<mask id="mask2_127_1127" style="mask-type:luminance" maskUnits="userSpaceOnUse" x="124" y="7" width="17" height="16">
<path fill-rule="evenodd" clip-rule="evenodd" d="M124.583 7.67969H140.789V23.003H124.583V7.67969Z" fill="white"/>
</mask>
<g mask="url(#mask2_127_1127)">
<path fill-rule="evenodd" clip-rule="evenodd" d="M140.789 17.56V17.56C140.789 20.5658 138.387 23.0032 135.425 23.0032H129.948C126.986 23.0032 124.583 20.5658 124.583 17.56V13.1215C124.583 10.1157 126.986 7.67969 129.948 7.67969H135.425C138.387 7.67969 140.789 10.1157 140.789 13.1215V17.56ZM128.186 16.018V16.018V17.5603C128.186 18.5461 128.975 19.3462 129.948 19.3462H132.943H133.036H135.425C136.398 19.3462 137.186 18.5461 137.186 17.5603V14.6642V13.1219C137.186 12.1361 136.398 11.3359 135.425 11.3359H132.43H132.336H129.948C128.975 11.3359 128.186 12.1361 128.186 13.1219V16.018Z" fill="#6DBD44"/>
</g>
<mask id="mask3_127_1127" style="mask-type:luminance" maskUnits="userSpaceOnUse" x="105" y="7" width="18" height="16">
<path fill-rule="evenodd" clip-rule="evenodd" d="M105.885 7.67969H122.091V23.003H105.885V7.67969Z" fill="white"/>
</mask>
<g mask="url(#mask3_127_1127)">
<path fill-rule="evenodd" clip-rule="evenodd" d="M122.091 17.56V17.56C122.091 20.5658 119.689 23.0032 116.727 23.0032H111.249C108.286 23.0032 105.885 20.5658 105.885 17.56V13.1215C105.885 10.1157 108.286 7.67969 111.249 7.67969H116.727C119.689 7.67969 122.091 10.1157 122.091 13.1215V17.56ZM109.488 16.018V16.018V17.5603C109.488 18.5461 110.277 19.3462 111.249 19.3462H114.244H114.338H116.727C117.699 19.3462 118.488 18.5461 118.488 17.5603V14.6642V13.1219C118.488 12.1361 117.699 11.3359 116.727 11.3359H113.732H113.638H111.249C110.277 11.3359 109.488 12.1361 109.488 13.1219V16.018Z" fill="#6DBD44"/>
</g>
<path fill-rule="evenodd" clip-rule="evenodd" d="M43.3379 4.05469H45.14C46.1302 4.05469 46.9407 4.87713 46.9407 5.88335V13.5537V16.012V17.5533C46.9407 18.5406 47.7292 19.3402 48.7007 19.3402H52.3036H54.692C55.6635 19.3402 56.452 18.5406 56.452 17.5533V13.1163C56.452 12.1291 55.6635 11.3304 54.692 11.3304H51.1842C49.3769 11.3304 47.9108 9.84268 47.9108 8.00879V7.67307H54.692C57.6542 7.67307 60.0549 10.1105 60.0549 13.1163V17.5533C60.0549 20.5601 57.6542 22.9961 54.692 22.9961H48.7007C45.7399 22.9961 43.3379 20.5601 43.3379 17.5533V9.38112V4.05469Z" fill="#006134"/>
<path fill-rule="evenodd" clip-rule="evenodd" d="M160 4.05469H158.198C157.208 4.05469 156.397 4.87713 156.397 5.88335V6.91853H156.396V13.5537V16.012V17.5533C156.396 18.5406 155.609 19.3402 154.636 19.3402H151.034H148.646C147.674 19.3402 146.886 18.5406 146.886 17.5533V13.1163C146.886 12.13 147.674 11.3304 148.646 11.3304H152.154C153.961 11.3304 155.427 9.84268 155.427 8.00879V7.67307H148.646C145.684 7.67307 143.283 10.1105 143.283 13.1163V17.5533C143.283 20.5601 145.684 22.9961 148.646 22.9961H154.636C157.598 22.9961 160 20.5601 160 17.5533V9.38112V6.91853V4.05469Z" fill="#6DBD44"/>
<path fill-rule="evenodd" clip-rule="evenodd" d="M75.8831 11.0362V11.0481V11.0619V11.0737V11.0766V11.0856V11.0989V11.1046V11.1113L75.8817 11.1231V11.1312V11.135V11.1473V11.1592V11.1606L75.8803 11.1725V11.1849V11.1863V11.1967L75.8793 11.2086V11.2143V11.2209L75.8779 11.2328V11.2409L75.8765 11.2447V11.2585L75.8751 11.2689V11.2703V11.2822L75.8737 11.2945V11.296L75.8723 11.3064L75.8714 11.3183V11.324V11.3306L75.87 11.3425L75.8686 11.3506V11.3544L75.8672 11.3667L75.8658 11.3772V11.3786L75.8648 11.3909L75.8634 11.4028V11.4042L75.862 11.4147L75.8606 11.427V11.4308L75.8592 11.4389L75.8578 11.4508L75.8569 11.4574V11.4631L75.8555 11.475L75.8541 11.4845L75.8527 11.4869L75.8513 11.4992L75.8503 11.5111L75.8475 11.5229L75.8461 11.5339V11.5377L75.8447 11.5457L75.8424 11.5581V11.5647L75.841 11.57L75.8382 11.5818L75.8368 11.5913V11.5942L75.8344 11.6046L75.833 11.617V11.6179L75.8302 11.6288L75.8279 11.6407V11.6436L75.8265 11.6516L75.8237 11.6635L75.8222 11.6702L75.8213 11.6759L75.8185 11.6877L75.8171 11.6958L75.8157 11.6982L75.8148 11.7105L75.812 11.7224L75.8091 11.7347L75.8068 11.7452L75.8054 11.748L75.804 11.7571L75.8012 11.7694L75.8003 11.7746L75.7989 11.7798L75.796 11.7922L75.7932 11.8003V11.8026L75.7895 11.815L75.7867 11.8254V11.8269C75.7118 12.1265 75.5944 12.4085 75.4399 12.6669C75.315 12.8768 75.1662 13.0724 74.9972 13.2462L75.0024 13.1085C75.0024 12.901 74.9668 12.7015 74.9022 12.5159C74.7955 12.2067 74.607 11.938 74.3646 11.7333C74.2064 11.6008 74.0243 11.4949 73.8264 11.4242C73.6579 11.3639 73.4759 11.3292 73.2873 11.324H73.2424L72.7496 11.3249L72.2119 11.3278L71.6738 11.3292L71.517 11.3306H71.1361H70.597H70.0588H69.5212H68.9835H68.4453H67.9062H67.3685H66.8884L66.8304 11.3292C66.6474 11.3264 66.4668 11.3064 66.2927 11.2732C66.1743 11.249 66.0582 11.2195 65.9459 11.1849L65.9436 11.1834L65.9342 11.1806L65.9263 11.1782H65.9249L65.8935 11.1673L65.8856 11.1644L65.8762 11.1621L65.8196 11.1407L65.8116 11.1378L65.7864 11.1283H65.7854C65.4176 10.9892 65.0797 10.7808 64.7924 10.5201C64.1424 9.93409 63.7339 9.07935 63.7339 8.12822V7.91406H64.7924H65.7536H65.9459H66.2927H66.8304H67.3685H67.9062H68.4453H68.9835H69.5212H70.0588H70.597H71.1361H71.6738H72.2119H72.7496H72.7931C72.9616 7.91406 73.1268 7.92736 73.2873 7.953C73.4731 7.98387 73.6537 8.0304 73.8264 8.09356C74.015 8.16146 74.1942 8.24693 74.3646 8.34903C74.5583 8.46537 74.7389 8.60307 74.9022 8.75835C75.1105 8.95637 75.2925 9.1824 75.4399 9.43122C75.5944 9.68906 75.7118 9.9716 75.7867 10.2712V10.2722L75.7895 10.2831L75.7932 10.294V10.2978L75.796 10.3059L75.7989 10.3178L75.8003 10.3235L75.8012 10.3287L75.804 10.3406L75.8054 10.3486L75.8068 10.3529L75.8091 10.3634L75.812 10.3752L75.8148 10.3876L75.8157 10.398L75.8171 10.4023L75.8185 10.4104L75.8213 10.4222L75.8222 10.4275L75.8237 10.4341L75.8265 10.445L75.8279 10.4545V10.4569L75.8302 10.4692L75.833 10.4797V10.4811L75.8344 10.4916L75.8368 10.5039V10.5063L75.8382 10.5158L75.841 10.5281L75.8424 10.5334V10.54L75.8447 10.5519L75.8461 10.5599V10.5628L75.8475 10.5747L75.8503 10.5856V10.5865L75.8513 10.5989L75.8527 10.6108L75.8541 10.6122L75.8555 10.6231L75.8569 10.635V10.6388L75.8578 10.6468L75.8592 10.6592L75.8606 10.6673V10.6711L75.862 10.6829L75.8634 10.6939V10.6953L75.8648 10.7072L75.8658 10.719V10.7204L75.8672 10.7314L75.8686 10.7432V10.7475L75.87 10.7551L75.8714 10.7675V10.7741V10.7793L75.8723 10.7912L75.8737 10.8021V10.8035L75.8751 10.8154V10.8278V10.8287L75.8765 10.8396V10.8515L75.8779 10.8558V10.8639L75.8793 10.8757V10.8838V10.889L75.8803 10.9009V10.9104V10.9132V10.9251L75.8817 10.9375V10.9384V10.9493V10.9626V10.9655V10.9745L75.8831 10.9868V10.9935V10.9987V11.0106V11.0215V11.0244V11.0362Z" fill="#6DBD44"/>
<mask id="mask4_127_1127" style="mask-type:luminance" maskUnits="userSpaceOnUse" x="62" y="8" width="17" height="15">
<path fill-rule="evenodd" clip-rule="evenodd" d="M62.5474 8.25781H78.517V23.0019H62.5474V8.25781Z" fill="white"/>
</mask>
<g mask="url(#mask4_127_1127)">
<path fill-rule="evenodd" clip-rule="evenodd" d="M73.2715 19.5823H67.3855C66.5694 19.5823 65.9077 18.9122 65.9077 18.0841C65.9077 17.256 66.5694 16.5859 67.3855 16.5859C68.0959 16.5859 69.4539 17.4288 70.6177 17.7778C72.9655 18.4825 74.528 17.8956 75.134 17.7161C75.1041 18.9498 74.1101 19.5823 73.2715 19.5823V19.5823ZM78.517 13.2423C78.517 10.9616 77.1038 9.01663 75.1187 8.25781C75.9016 8.92973 76.3971 9.93262 76.3971 11.0537C76.3971 13.0738 74.7836 14.7111 72.7929 14.7111C72.3226 14.7111 71.8982 14.6199 71.463 14.4556L69.1667 13.5216C68.6234 13.2998 68.0145 13.1778 67.3856 13.1778C64.7136 13.1778 62.5474 15.3759 62.5474 18.0873C62.5474 20.7987 64.7136 23.002 67.3856 23.002H73.2716C74.3325 23.002 75.318 22.6796 76.1435 22.1302C76.7088 22.6696 77.4678 23.002 78.3059 23.002H78.517V21.9288V20.9525V20.7574V20.4055V19.8599V19.3138V18.7682V18.2221V18.0165H78.5001C78.5072 17.9045 78.517 17.7929 78.517 17.6794V13.2423Z" fill="#006134"/>
</g>
</svg>
