<svg width="12" height="14" viewBox="0 0 12 14" fill="none" xmlns="http://www.w3.org/2000/svg">
<path fill-rule="evenodd" clip-rule="evenodd" d="M0 5.82166C0.00397554 2.60782 2.68804 0.00353574 6 0C9.31196 0.00353574 11.996 2.60782 12 5.82166C12 7.32082 10.8037 9.66698 8.44424 12.7948C7.87452 13.5522 6.96631 14 6 14C5.03369 14 4.12548 13.5522 3.55576 12.7948C1.19627 9.66698 0 7.32082 0 5.82166ZM3.59546 5.80989C3.59546 7.09855 4.67202 8.14322 6.00003 8.14322C6.63776 8.14322 7.24937 7.89739 7.70031 7.45981C8.15126 7.02222 8.4046 6.42873 8.4046 5.80989C8.4046 4.52123 7.32803 3.47656 6.00003 3.47656C4.67202 3.47656 3.59546 4.52123 3.59546 5.80989Z" fill="#989898"/>
</svg>
