<svg width="51" height="40" viewBox="0 0 51 40" fill="none" xmlns="http://www.w3.org/2000/svg">
<path fill-rule="evenodd" clip-rule="evenodd" d="M48.5451 37.7885V33.9844H47.6264V36.1957C47.3201 35.7988 46.8812 35.5772 46.3095 35.5772C45.1254 35.5772 44.2066 36.505 44.2066 37.7885C44.2066 39.072 45.1254 39.9998 46.3095 39.9998C46.922 39.9998 47.3609 39.7782 47.6264 39.3813V39.9122H48.5451V37.7885ZM21.3811 35.6663H22.8664V36.5065H21.376V38.4086C21.376 38.8467 21.5495 39.1148 21.9885 39.1148C22.2079 39.1148 22.5142 39.0684 22.7796 38.8931L23.045 39.6921C22.7388 39.8673 22.2998 40.0014 21.9068 40.0014C20.8554 40.0014 20.4623 39.4292 20.4623 38.455V36.5065H19.6304V35.6663H20.4623V34.3828H21.3811V35.6663ZM9.24365 37.2585V39.9132H8.22794V37.5678C8.22794 36.8565 7.9217 36.4596 7.30921 36.4596C6.74265 36.4596 6.3037 36.8152 6.3037 37.5678V39.9132H5.38497V37.5678C5.38497 36.8565 5.07872 36.4596 4.46623 36.4596C3.85374 36.4596 3.46073 36.8152 3.46073 37.5678V39.9132H2.54199V35.6658H3.46073V36.1967C3.8078 35.7121 4.24676 35.5781 4.68571 35.5781C5.34413 35.5781 5.78308 35.8462 6.08933 36.3307C6.48234 35.7534 7.054 35.5781 7.57972 35.5781C8.63116 35.5781 9.24365 36.2431 9.24365 37.2585ZM30.6704 35.5703C30.1447 35.5703 29.7925 35.8384 29.573 36.1889V35.6579H28.6543V39.9054H29.573V37.5136C29.573 36.8074 29.8793 36.4054 30.4509 36.4054C30.6245 36.4054 30.8439 36.4518 31.0226 36.493L31.288 35.6064C31.1043 35.5703 30.8439 35.5703 30.6704 35.5703ZM17.1754 35.5703C17.8339 35.5703 18.4464 35.7043 18.8853 36.0136L18.4974 36.7662C18.232 36.6322 17.7063 36.4105 17.1805 36.4105C16.6957 36.4105 16.3894 36.5858 16.3894 36.8951C16.3894 37.1579 16.6957 37.2456 17.0887 37.292L17.5276 37.3384C18.4004 37.4724 18.9721 37.8693 18.9721 38.6219C18.9721 39.4157 18.2677 39.993 17.0427 39.993C16.3843 39.993 15.7259 39.8177 15.2461 39.4621L15.685 38.7559C15.9913 38.9775 16.4762 39.1992 17.0887 39.1992C17.7012 39.1992 18.0533 38.9775 18.0533 38.6683C18.0533 38.4466 17.7879 38.3126 17.3081 38.225L16.8692 38.1786C15.9505 38.0497 15.4247 37.6476 15.4247 36.9414C15.4247 36.1012 16.124 35.5703 17.1754 35.5703ZM43.3286 35.5703C42.8029 35.5703 42.4507 35.8384 42.2312 36.1889V35.6579H41.3125V39.9054H42.2312V37.5136C42.2312 36.8074 42.5375 36.4054 43.1091 36.4054C43.2827 36.4054 43.5022 36.4518 43.6808 36.493L43.9462 35.6167C43.7676 35.5703 43.5073 35.5703 43.3286 35.5703ZM33.8249 40.0008C32.4673 40.0008 31.5894 39.073 31.5894 37.7895C31.5894 36.506 32.4673 35.573 33.8249 35.5781C34.4374 35.5781 34.8764 35.707 35.3153 36.0627L34.8764 36.8153C34.5242 36.5524 34.172 36.4184 33.779 36.4184C33.0338 36.4596 32.5081 36.9905 32.5081 37.7895C32.5081 38.6297 33.0338 39.1606 33.779 39.1606C34.1771 39.1606 34.5242 39.0318 34.8764 38.7637L35.3153 39.5163C34.8764 39.8668 34.4374 40.0008 33.8249 40.0008ZM40.0875 37.7895V35.6658H39.1688V36.1967C38.8625 35.7998 38.4236 35.5781 37.8519 35.5781C36.6678 35.5781 35.749 36.506 35.749 37.7895C35.749 39.073 36.6678 40.0008 37.8519 40.0008C38.4644 40.0008 38.9033 39.7792 39.1688 39.3822V39.9132H40.0875V37.7895ZM37.9848 36.4141C37.1936 36.4141 36.7139 37.0326 36.7139 37.7852C36.7139 38.5326 37.1988 39.1099 37.9848 39.1563C38.73 39.1563 39.2557 38.5378 39.2557 37.7852C39.2557 36.9914 38.73 36.4141 37.9848 36.4141ZM25.7196 35.5703C24.4946 35.5703 23.6167 36.4569 23.6167 37.7817C23.6167 39.1115 24.4946 39.993 25.7655 39.993C26.378 39.993 26.9905 39.8177 27.4754 39.4157L27.0364 38.7507C26.6843 39.0188 26.2453 39.194 25.8115 39.194C25.2398 39.194 24.6732 38.926 24.5405 38.1786H27.6489V37.8229C27.6898 36.4569 26.8986 35.5703 25.7196 35.5703ZM26.7712 37.3827C26.6844 36.7229 26.2914 36.3672 25.7198 36.3672C25.0613 36.3672 24.6683 36.8105 24.5815 37.3827H26.7712ZM46.4423 36.4141C45.6512 36.4141 45.1714 37.0326 45.1714 37.7852C45.1714 38.5326 45.6512 39.1099 46.4423 39.1563C47.1875 39.1563 47.7132 38.5378 47.7132 37.7852C47.7132 36.9914 47.1875 36.4141 46.4423 36.4141ZM14.4142 37.7895V35.6658H13.4954V36.1967C13.1892 35.7998 12.7502 35.5781 12.1786 35.5781C10.9944 35.5781 10.0757 36.506 10.0757 37.7895C10.0757 39.073 10.9944 40.0008 12.1786 40.0008C12.7911 40.0008 13.23 39.7792 13.4954 39.3822V39.9132H14.4142V37.7895ZM12.2704 36.4141C11.4793 36.4141 10.9995 37.0326 10.9995 37.7852C10.9995 38.5326 11.4793 39.1099 12.2704 39.1563C13.0156 39.1563 13.5413 38.5378 13.5413 37.7852C13.5413 36.9914 13.0156 36.4141 12.2704 36.4141Z" fill="black"/>
<rect x="18.5791" y="3.40625" width="13.8014" height="25.0412" fill="#FF5A00"/>
<path d="M19.4976 15.9278C19.4976 10.8402 21.8659 6.32474 25.5 3.40722C22.8255 1.28351 19.4517 0 15.7716 0C7.05384 0 0 7.12371 0 15.9278C0 24.732 7.05384 31.8557 15.7716 31.8557C19.4517 31.8557 22.8255 30.5722 25.5 28.4485C21.8608 25.5722 19.4976 21.0155 19.4976 15.9278Z" fill="#EB001B"/>
<path d="M51 15.9278C51 24.732 43.9462 31.8557 35.2284 31.8557C31.5483 31.8557 28.1745 30.5722 25.5 28.4485C29.18 25.5258 31.5024 21.0155 31.5024 15.9278C31.5024 10.8402 29.1341 6.32474 25.5 3.40722C28.1694 1.28351 31.5432 0 35.2233 0C43.9462 0 51 7.1701 51 15.9278Z" fill="#F79E1B"/>
</svg>
