<svg width="11" height="12" viewBox="0 0 11 12" fill="none" xmlns="http://www.w3.org/2000/svg">
<path d="M6.93954 7.39219C6.22497 8.24377 5.33341 8.93058 4.26979 9.44674L4.02116 9.56713L2.55283 8.57525C2.28047 8.34671 1.87273 8.38238 1.64419 8.65474L0.410359 9.7912C0.224182 10.019 0.260589 10.4274 0.53295 10.6559L1.38393 11.4413C1.82734 11.8134 2.42355 11.9959 3.04731 11.9413C6.27007 11.6594 11.1168 6.45873 10.7899 2.71408C10.7353 2.09032 10.4513 1.53425 9.99111 1.14937L9.10503 0.475912C8.81505 0.23259 8.40669 0.268996 8.17815 0.541357L7.34669 1.8528C7.08105 2.17535 7.11745 2.5837 7.38981 2.81224L8.626 4.08972L8.54411 4.35878C8.1881 5.52999 7.65164 6.54354 6.93892 7.39292L6.93954 7.39219Z" fill="#989898"/>
</svg>
