<svg width="69" height="22" viewBox="0 0 69 22" fill="none" xmlns="http://www.w3.org/2000/svg">
<path fill-rule="evenodd" clip-rule="evenodd" d="M44.9422 0C40.0429 0 35.6647 2.49889 35.6647 7.11577C35.6647 10.2143 38.324 11.6248 40.5301 12.7949C42.0937 13.6242 43.4297 14.3328 43.4297 15.4361C43.4297 16.5561 42.1254 17.5586 39.8977 17.5586C36.7362 17.5586 34.3733 16.1577 34.3733 16.1577L33.3622 20.8167C33.3622 20.8167 36.0843 22 39.6982 22C45.0546 22 49.2695 19.3784 49.2695 14.6826C49.2695 11.3209 46.4545 9.85101 44.2073 8.67762C42.7145 7.89815 41.4723 7.24953 41.4723 6.26411C41.4723 5.38677 42.543 4.42547 44.7643 4.42547C47.2706 4.42547 49.3154 5.44428 49.3154 5.44428L50.3049 0.944525C50.3049 0.944525 48.0799 0 44.9422 0ZM0.118631 0.335938L0 1.01515C0 1.01515 2.06113 1.38635 3.91751 2.12682C6.30776 2.97592 6.47803 3.47022 6.88059 5.0055L11.2672 21.6461H17.1475L26.2066 0.335938H20.3398L14.5188 14.8248L12.1435 2.54337C11.9256 1.13776 10.8222 0.335938 9.47159 0.335938H0.118631ZM23.9634 21.6461L28.5657 0.335938H34.1441L29.5579 21.6461H23.9634ZM59.7685 0.335938C58.4195 0.335938 57.7047 1.04667 57.1802 2.28866L48.9839 21.6461H54.8507L55.9858 18.4199H63.1333L63.8235 21.6461H69.0001L64.4841 0.335938H59.7685ZM62.2703 14.0904L60.5313 6.09375L57.6113 14.0904H62.2703Z" fill="#1434CB"/>
</svg>
