<svg width="14" height="14" viewBox="0 0 14 14" fill="none" xmlns="http://www.w3.org/2000/svg">
<path fill-rule="evenodd" clip-rule="evenodd" d="M7.0296 0C8.89411 0.000583333 10.6443 0.723333 11.9608 2.03467C13.2767 3.34542 14.0012 5.089 14 6.94225C13.9982 10.7677 10.8706 13.8798 7.02901 13.8798H7.02608C5.85966 13.8792 4.71317 13.5882 3.69504 13.0352L0 14L0.989407 10.4055C0.379234 9.35317 0.058028 8.15967 0.0586142 6.937C0.0603726 3.1115 3.18744 0 7.0296 0ZM9.01721 7.82646C9.17723 7.88421 10.0336 8.30363 10.2077 8.39054C10.2418 8.4076 10.2738 8.42298 10.3034 8.43722C10.4245 8.49555 10.5063 8.53494 10.5412 8.59354C10.5851 8.66529 10.5851 9.01296 10.4398 9.41779C10.2944 9.82263 9.59866 10.1925 9.26398 10.242C8.96387 10.2864 8.58405 10.305 8.16672 10.1732C7.91409 10.0933 7.58937 9.98654 7.17379 9.80804C5.53992 9.10602 4.43599 7.52923 4.22863 7.23307C4.21424 7.21251 4.20417 7.19812 4.19854 7.19063L4.19647 7.18787C4.10235 7.06261 3.48755 6.2444 3.48755 5.39746C3.48755 4.60036 3.88079 4.18188 4.06236 3.98866C4.07506 3.97515 4.08672 3.96274 4.09714 3.95138C4.25657 3.77754 4.4453 3.73438 4.56136 3.73438C4.678 3.73438 4.79406 3.73496 4.89546 3.74021C4.90804 3.74082 4.92112 3.74073 4.93464 3.74064C5.03638 3.73994 5.1629 3.73906 5.28759 4.03771C5.33223 4.14472 5.39619 4.29985 5.46462 4.46579C5.61813 4.8381 5.79409 5.26483 5.8245 5.32454C5.86846 5.41146 5.89718 5.51296 5.83915 5.62846C5.8301 5.64638 5.82176 5.66326 5.81381 5.67937C5.77025 5.76755 5.73824 5.83237 5.66389 5.91721C5.63469 5.95115 5.60457 5.9877 5.57447 6.02422C5.51456 6.09691 5.45475 6.16948 5.40247 6.22112C5.31572 6.30746 5.22487 6.40079 5.32628 6.57463C5.42768 6.74846 5.7776 7.31604 6.29517 7.77571C6.85101 8.26943 7.33443 8.47809 7.57996 8.58408C7.62829 8.60494 7.66741 8.62183 7.69605 8.63613C7.87013 8.72304 7.97212 8.70846 8.07352 8.59296C8.17551 8.47688 8.50844 8.08604 8.62508 7.91279C8.74172 7.73954 8.85778 7.76871 9.01721 7.82646Z" fill="#989898"/>
</svg>
