<svg width="16" height="12" viewBox="0 0 16 12" fill="none" xmlns="http://www.w3.org/2000/svg">
<path opacity="0.3" fill-rule="evenodd" clip-rule="evenodd" d="M15.9153 3.31413C15.9598 3.82962 15.9852 4.2563 15.991 4.59376C15.997 4.93125 16 5.39995 16 6C16 6.59998 15.997 7.06882 15.991 7.40624C15.985 7.74373 15.9598 8.17041 15.9153 8.68584C15.8705 9.2016 15.8035 9.66255 15.7143 10.0688C15.619 10.5249 15.4138 10.9094 15.0982 11.2218C14.7827 11.5343 14.4138 11.7156 13.991 11.7656C12.6695 11.9219 10.6728 12 8 12C5.32733 12 3.33043 11.9219 2.009 11.7656C1.58644 11.7155 1.21583 11.5343 0.897312 11.2218C0.57886 10.9094 0.372053 10.5251 0.276796 10.0688C0.193454 9.66255 0.129438 9.2016 0.084812 8.68584C0.0402482 8.17038 0.0149171 7.74393 0.00900658 7.40624C0.00293965 7.06882 0 6.59998 0 6C0 5.39995 0.00293965 4.93125 0.00897531 4.59376C0.0148859 4.25613 0.0402169 3.82962 0.0847807 3.31413C0.129407 2.79843 0.196456 2.33751 0.285646 1.93123C0.380903 1.47494 0.586272 1.09052 0.901784 0.77812C1.21717 0.465552 1.58628 0.284329 2.00897 0.234287C3.3304 0.0781502 5.32742 0 7.99997 0C10.6725 0 12.6695 0.0781502 13.991 0.234287C14.4137 0.284362 14.7843 0.465552 15.1027 0.77812C15.4211 1.09062 15.628 1.47504 15.7232 1.93123C15.8065 2.33738 15.8705 2.79834 15.9153 3.31413ZM6.58928 9.50943L11.1606 6.50955C11.3392 6.40339 11.4284 6.23448 11.4284 6.00331C11.4284 5.77205 11.3392 5.6032 11.1607 5.49714L6.58928 2.49722C6.40473 2.37212 6.21134 2.36581 6.00891 2.47847C5.81255 2.59094 5.71436 2.76602 5.71436 3.00339V9.0032C5.71436 9.24063 5.81252 9.41572 6.00891 9.52808C6.10414 9.57806 6.19639 9.60315 6.28562 9.60315C6.40461 9.60315 6.5059 9.57192 6.58928 9.50943Z" fill="black"/>
</svg>
